<?xml version="1.0" encoding="us-ascii" standalone="no"?><svg xmlns="http://www.w3.org/2000/svg" xmlns:xlink="http://www.w3.org/1999/xlink" contentStyleType="text/css" height="432px" preserveAspectRatio="none" style="width:721px;height:432px;background:#282C34;" version="1.1" viewBox="0 0 721 432" width="721px" zoomAndPan="magnify"><defs/><g><rect fill="#282C34" height="432" style="stroke:none;stroke-width:1.0;" width="721" x="0" y="0"/><!--cluster Software--><g id="cluster_Software"><rect fill="#424856" height="344" rx="2.5" ry="2.5" style="stroke:#ABB2BF;stroke-width:1.0;" width="618" x="97" y="7"/><text fill="#ABB2BF" font-family="Segoe UI" font-size="14" font-weight="bold" lengthAdjust="spacing" textLength="60" x="376" y="24.1074">Software</text></g><g id="elem_setup"><ellipse cx="559.5186" cy="255.0399" fill="#424856" rx="139.5186" ry="63.5399" style="stroke:#61AFEF;stroke-width:0.5;"/><text fill="#ABB2BF" font-family="Segoe UI" font-size="18" font-weight="bold" lengthAdjust="spacing" textLength="192" x="463.5186" y="232.438">Impostare simulazione</text><line style="stroke:#61AFEF;stroke-width:1.0;" x1="426.7702" x2="692.267" y1="236.9555" y2="236.9555"/><text fill="#ABB2BF" font-family="Segoe UI" font-size="16" font-weight="bold" lengthAdjust="spacing" textLength="127" x="496.0186" y="258.2212">Extension points</text><text fill="#ABB2BF" font-family="Segoe UI" font-size="14" lengthAdjust="spacing" textLength="133" x="493.0186" y="277.3442">Salvare simulazione</text><text fill="#ABB2BF" font-family="Segoe UI" font-size="14" lengthAdjust="spacing" textLength="139" x="490.0186" y="295.9653">Caricare simulazione</text></g><g id="elem_save"><ellipse cx="205.0532" cy="236.8106" fill="#424856" rx="89.5532" ry="20.3106" style="stroke:#61AFEF;stroke-width:0.5;"/><text fill="#ABB2BF" font-family="Segoe UI" font-size="14" font-weight="bold" lengthAdjust="spacing" textLength="133" x="135.5532" y="241.6144">Salvare simulazione</text></g><g id="elem_load"><ellipse cx="204.9801" cy="313.796" fill="#424856" rx="91.9801" ry="20.796" style="stroke:#61AFEF;stroke-width:0.5;"/><text fill="#ABB2BF" font-family="Segoe UI" font-size="14" font-weight="bold" lengthAdjust="spacing" textLength="139" x="132.4801" y="318.5997">Caricare simulazione</text></g><g id="elem_run"><ellipse cx="204.9801" cy="159.796" fill="#424856" rx="91.9801" ry="20.796" style="stroke:#61AFEF;stroke-width:0.5;"/><text fill="#ABB2BF" font-family="Segoe UI" font-size="14" font-weight="bold" lengthAdjust="spacing" textLength="139" x="132.4801" y="164.5997">Eseguire simulazione</text></g><g id="elem_results"><ellipse cx="205.0532" cy="64.8106" fill="#424856" rx="89.5532" ry="20.3106" style="stroke:#61AFEF;stroke-width:0.5;"/><text fill="#ABB2BF" font-family="Segoe UI" font-size="14" font-weight="bold" lengthAdjust="spacing" textLength="133" x="135.5532" y="69.6144">Visualizzare risultati</text></g><!--entity user--><g id="elem_user"><ellipse cx="28" cy="206" fill="#424856" rx="8" ry="8" style="stroke:#61AFEF;stroke-width:0.5;"/><path d="M28,214 L28,241 M15,222 L41,222 M28,241 L15,256 M28,241 L41,256 " fill="none" style="stroke:#61AFEF;stroke-width:0.5;"/><text fill="#ABB2BF" font-family="Segoe UI" font-size="14" lengthAdjust="spacing" textLength="44" x="6" y="272.6074">Utente</text></g><!--link user to setup--><g id="link_user_setup"><path d="M38.28,276.65 C46.73,303.03 62.14,335.71 89,352 C209.64,425.13 376.35,358.89 475.24,305.78 " fill="none" id="user-setup" style="stroke:#61AFEF;stroke-width:1.0;"/></g><!--link user to save--><g id="link_user_save"><path d="M50.11,237 C66.65,237 90.88,237 115.24,237 " fill="none" id="user-save" style="stroke:#61AFEF;stroke-width:1.0;"/></g><!--link user to load--><g id="link_user_load"><path d="M50.23,252.19 C61.4,259.72 75.54,268.56 89,275 C107.36,283.77 128.21,291.47 147.08,297.66 " fill="none" id="user-load" style="stroke:#61AFEF;stroke-width:1.0;"/></g><!--link user to run--><g id="link_user_run"><path d="M50.23,221.81 C61.4,214.27 75.54,205.43 89,199 C107.36,190.23 128.21,182.53 147.08,176.33 " fill="none" id="user-run" style="stroke:#61AFEF;stroke-width:1.0;"/></g><!--link user to results--><g id="link_user_results"><path d="M42.19,197.26 C51.95,172.78 67.34,142.14 89,121 C106.8,103.62 131.03,90.73 152.67,81.73 " fill="none" id="user-results" style="stroke:#61AFEF;stroke-width:1.0;"/></g><!--link save to setup--><g id="link_save_setup"><path d="M292.68,241.42 C331.21,243.39 371.5279,245.4427 414.6179,247.6527 " fill="none" id="save-to-setup" style="stroke:#61AFEF;stroke-width:1.0;stroke-dasharray:7.0,7.0;"/><polygon fill="#61AFEF" points="420.61,247.96,411.8267,243.5043,415.6166,247.7039,411.4169,251.4938,420.61,247.96" style="stroke:#61AFEF;stroke-width:1.0;"/><text fill="#ABB2BF" font-family="Segoe UI" font-size="13" lengthAdjust="spacing" textLength="58" x="329.5" y="240.0283">&#171;extend&#187;</text></g><!--link load to setup--><g id="link_load_setup"><path d="M279.9,301.63 C322.9,294.43 372.4222,286.14 422.5122,277.76 " fill="none" id="load-to-setup" style="stroke:#61AFEF;stroke-width:1.0;stroke-dasharray:7.0,7.0;"/><polygon fill="#61AFEF" points="428.43,276.77,418.8933,274.3099,423.4985,277.595,420.2134,282.2002,428.43,276.77" style="stroke:#61AFEF;stroke-width:1.0;"/><text fill="#ABB2BF" font-family="Segoe UI" font-size="13" lengthAdjust="spacing" textLength="58" x="329.5" y="281.0283">&#171;extend&#187;</text></g><!--link run to setup--><g id="link_run_setup"><path d="M265.4,176 C312.78,188.78 374.8867,205.5086 433.3967,221.2786 " fill="none" id="run-to-setup" style="stroke:#61AFEF;stroke-width:1.0;stroke-dasharray:7.0,7.0;"/><polygon fill="#61AFEF" points="439.19,222.84,431.5411,216.6357,434.3623,221.5388,429.4591,224.36,439.19,222.84" style="stroke:#61AFEF;stroke-width:1.0;"/><text fill="#ABB2BF" font-family="Segoe UI" font-size="13" lengthAdjust="spacing" textLength="61" x="328" y="190.0283">&#171;include&#187;</text></g><!--link results to run--><g id="link_results_run"><path d="M205,85.69 C205,101.45 205,117.06 205,132.91 " fill="none" id="results-to-run" style="stroke:#61AFEF;stroke-width:1.0;stroke-dasharray:7.0,7.0;"/><polygon fill="#61AFEF" points="205,138.91,209,129.91,205,133.91,201,129.91,205,138.91" style="stroke:#61AFEF;stroke-width:1.0;"/><text fill="#ABB2BF" font-family="Segoe UI" font-size="13" lengthAdjust="spacing" textLength="61" x="162" y="117.7783">&#171;include&#187;</text></g><!--SRC=[TP8nJyCm48Lt_ueZ4qHoGjUexO8wC5Um7yariUBObdrkKH7_7RjjGAsAfpo_xzwBJdvGfjMn8nYONMZgskEXwXKFyIC6ygqrJ8QhrawrG_Pgb6t0iRQ6P8T-b4wZuJXfoGDDLEyNrNErg4-YSkbUQDeni0Ml-e6XKvvQLjO8qRpbP6e00-Gg8RA5fjS4nTRk-82U2lWIa4u2MWm4WJYwF56iNYTd0oS6WfgYncDA9I6bMAqsdoaw90tEAiD1R57lRyaNzAgzkInEPOzbUMUWB9zoSS0zpTIzY0kcBNOpjWdKHtKNyz7CrBiA4RKw7dEWJq8pifevoZg8Ro7oha3Ayoh-LFwjMPpAPv4hVhylCIBZK5NhSqe3ooNbdNNhjSZ3_rWfwjgvF9vidPCXkOcwzdu0]--></g></svg>