<?xml version="1.0" encoding="us-ascii" standalone="no"?><svg xmlns="http://www.w3.org/2000/svg" xmlns:xlink="http://www.w3.org/1999/xlink" contentStyleType="text/css" height="1112px" preserveAspectRatio="none" style="width:607px;height:1112px;background:#282C34;" version="1.1" viewBox="0 0 607 1112" width="607px" zoomAndPan="magnify"><defs/><g><rect fill="#282C34" height="1112" style="stroke:none;stroke-width:1.0;" width="607" x="0" y="0"/><rect fill="#282C34" height="976.9453" style="stroke:#61AFEF;stroke-width:1.0;" width="10" x="61.5" y="75.9121"/><rect fill="#282C34" height="25" style="stroke:#61AFEF;stroke-width:1.0;" width="10" x="66.5" y="256.6582"/><rect fill="#282C34" height="619.3262" style="stroke:#61AFEF;stroke-width:1.0;" width="10" x="66.5" y="329.9492"/><rect fill="#282C34" height="548.0352" style="stroke:#61AFEF;stroke-width:1.0;" width="10" x="71.5" y="374.2402"/><rect fill="#282C34" height="351.5801" style="stroke:#61AFEF;stroke-width:1.0;" width="10" x="76.5" y="543.6953"/><rect fill="#282C34" height="62.252" style="stroke:#61AFEF;stroke-width:1.0;" width="10" x="81.5" y="799.0234"/><rect fill="#282C34" height="36.291" style="stroke:#61AFEF;stroke-width:1.0;" width="10" x="66.5" y="1016.5664"/><rect fill="#282C34" height="31.291" style="stroke:#61AFEF;stroke-width:1.0;" width="10" x="179.5" y="133.4941"/><rect fill="#282C34" height="31.291" style="stroke:#61AFEF;stroke-width:1.0;" width="10" x="245.5" y="410.5313"/><rect fill="#282C34" height="31.291" style="stroke:#61AFEF;stroke-width:1.0;" width="10" x="245.5" y="579.9863"/><rect fill="#282C34" height="31.291" style="stroke:#61AFEF;stroke-width:1.0;" width="10" x="301" y="473.1133"/><rect fill="#282C34" height="93.873" style="stroke:#61AFEF;stroke-width:1.0;" width="10" x="356" y="642.5684"/><rect fill="#282C34" height="31.291" style="stroke:#61AFEF;stroke-width:1.0;" width="10" x="497" y="673.8594"/><rect fill="#282C34" height="107.543" style="stroke:#61AFEF;stroke-width:1.0;" width="10" x="548" y="767.7324"/><rect fill="#282C34" height="887.3633" style="stroke:#ABB2BF;stroke-width:1.5;" width="591" x="10" y="90.9121"/><rect fill="#282C34" height="791.4902" style="stroke:#ABB2BF;stroke-width:1.5;" width="571" x="20" y="179.7852"/><rect fill="#282C34" height="758.1992" style="stroke:#ABB2BF;stroke-width:1.5;" width="551" x="30" y="206.0762"/><rect fill="#282C34" height="667.6172" style="stroke:none;stroke-width:1.0;" width="551" x="30" y="296.6582"/><line style="stroke:#61AFEF;stroke-width:0.5;stroke-dasharray:5.0,5.0;" x1="66" x2="66" y1="42.6211" y2="1070.8574"/><line style="stroke:#61AFEF;stroke-width:0.5;stroke-dasharray:5.0,5.0;" x1="184" x2="184" y1="42.6211" y2="1070.8574"/><line style="stroke:#61AFEF;stroke-width:0.5;stroke-dasharray:5.0,5.0;" x1="250" x2="250" y1="42.6211" y2="1070.8574"/><line style="stroke:#61AFEF;stroke-width:0.5;stroke-dasharray:5.0,5.0;" x1="306" x2="306" y1="42.6211" y2="1070.8574"/><line style="stroke:#61AFEF;stroke-width:0.5;stroke-dasharray:5.0,5.0;" x1="361" x2="361" y1="42.6211" y2="1070.8574"/><line style="stroke:#61AFEF;stroke-width:0.5;stroke-dasharray:5.0,5.0;" x1="502" x2="502" y1="42.6211" y2="1070.8574"/><line style="stroke:#61AFEF;stroke-width:0.5;stroke-dasharray:5.0,5.0;" x1="553" x2="553" y1="42.6211" y2="1070.8574"/><rect fill="#424856" height="32.6211" rx="2.5" ry="2.5" style="stroke:#61AFEF;stroke-width:0.5;" width="53" x="40" y="9"/><text fill="#ABB2BF" font-family="Segoe UI" font-size="14" lengthAdjust="spacing" textLength="39" x="47" y="31.1074">Match</text><rect fill="#424856" height="32.6211" rx="2.5" ry="2.5" style="stroke:#61AFEF;stroke-width:0.5;" width="53" x="40" y="1069.8574"/><text fill="#ABB2BF" font-family="Segoe UI" font-size="14" lengthAdjust="spacing" textLength="39" x="47" y="1091.9648">Match</text><rect fill="#424856" height="32.6211" style="stroke:#61AFEF;stroke-width:0.5;" width="57" x="158" y="5"/><rect fill="#424856" height="32.6211" style="stroke:#61AFEF;stroke-width:0.5;" width="57" x="154" y="9"/><text fill="#ABB2BF" font-family="Segoe UI" font-size="14" lengthAdjust="spacing" textLength="43" x="161" y="31.1074">Players</text><rect fill="#424856" height="32.6211" style="stroke:#61AFEF;stroke-width:0.5;" width="57" x="158" y="1069.8574"/><rect fill="#424856" height="32.6211" style="stroke:#61AFEF;stroke-width:0.5;" width="57" x="154" y="1073.8574"/><text fill="#ABB2BF" font-family="Segoe UI" font-size="14" lengthAdjust="spacing" textLength="43" x="161" y="1095.9648">Players</text><rect fill="#424856" height="32.6211" rx="2.5" ry="2.5" style="stroke:#61AFEF;stroke-width:0.5;" width="51" x="225" y="9"/><text fill="#ABB2BF" font-family="Segoe UI" font-size="14" lengthAdjust="spacing" textLength="37" x="232" y="31.1074">Player</text><rect fill="#424856" height="32.6211" rx="2.5" ry="2.5" style="stroke:#61AFEF;stroke-width:0.5;" width="51" x="225" y="1069.8574"/><text fill="#ABB2BF" font-family="Segoe UI" font-size="14" lengthAdjust="spacing" textLength="37" x="232" y="1091.9648">Player</text><rect fill="#424856" height="32.6211" rx="2.5" ry="2.5" style="stroke:#61AFEF;stroke-width:0.5;" width="40" x="286" y="9"/><text fill="#ABB2BF" font-family="Segoe UI" font-size="14" lengthAdjust="spacing" textLength="26" x="293" y="31.1074">Dice</text><rect fill="#424856" height="32.6211" rx="2.5" ry="2.5" style="stroke:#61AFEF;stroke-width:0.5;" width="40" x="286" y="1069.8574"/><text fill="#ABB2BF" font-family="Segoe UI" font-size="14" lengthAdjust="spacing" textLength="26" x="293" y="1091.9648">Dice</text><rect fill="#424856" height="32.6211" rx="2.5" ry="2.5" style="stroke:#61AFEF;stroke-width:0.5;" width="50" x="336" y="9"/><text fill="#ABB2BF" font-family="Segoe UI" font-size="14" lengthAdjust="spacing" textLength="36" x="343" y="31.1074">Board</text><rect fill="#424856" height="32.6211" rx="2.5" ry="2.5" style="stroke:#61AFEF;stroke-width:0.5;" width="50" x="336" y="1069.8574"/><text fill="#ABB2BF" font-family="Segoe UI" font-size="14" lengthAdjust="spacing" textLength="36" x="343" y="1091.9648">Board</text><rect fill="#424856" height="32.6211" style="stroke:#61AFEF;stroke-width:0.5;" width="42" x="483" y="5"/><rect fill="#424856" height="32.6211" style="stroke:#61AFEF;stroke-width:0.5;" width="42" x="479" y="9"/><text fill="#ABB2BF" font-family="Segoe UI" font-size="14" lengthAdjust="spacing" textLength="28" x="486" y="31.1074">Cells</text><rect fill="#424856" height="32.6211" style="stroke:#61AFEF;stroke-width:0.5;" width="42" x="483" y="1069.8574"/><rect fill="#424856" height="32.6211" style="stroke:#61AFEF;stroke-width:0.5;" width="42" x="479" y="1073.8574"/><text fill="#ABB2BF" font-family="Segoe UI" font-size="14" lengthAdjust="spacing" textLength="28" x="486" y="1095.9648">Cells</text><rect fill="#424856" height="32.6211" rx="2.5" ry="2.5" style="stroke:#61AFEF;stroke-width:0.5;" width="36" x="535" y="9"/><text fill="#ABB2BF" font-family="Segoe UI" font-size="14" lengthAdjust="spacing" textLength="22" x="542" y="31.1074">Cell</text><rect fill="#424856" height="32.6211" rx="2.5" ry="2.5" style="stroke:#61AFEF;stroke-width:0.5;" width="36" x="535" y="1069.8574"/><text fill="#ABB2BF" font-family="Segoe UI" font-size="14" lengthAdjust="spacing" textLength="22" x="542" y="1091.9648">Cell</text><rect fill="#282C34" height="976.9453" style="stroke:#61AFEF;stroke-width:1.0;" width="10" x="61.5" y="75.9121"/><rect fill="#282C34" height="25" style="stroke:#61AFEF;stroke-width:1.0;" width="10" x="66.5" y="256.6582"/><rect fill="#282C34" height="619.3262" style="stroke:#61AFEF;stroke-width:1.0;" width="10" x="66.5" y="329.9492"/><rect fill="#282C34" height="548.0352" style="stroke:#61AFEF;stroke-width:1.0;" width="10" x="71.5" y="374.2402"/><rect fill="#282C34" height="351.5801" style="stroke:#61AFEF;stroke-width:1.0;" width="10" x="76.5" y="543.6953"/><rect fill="#282C34" height="62.252" style="stroke:#61AFEF;stroke-width:1.0;" width="10" x="81.5" y="799.0234"/><rect fill="#282C34" height="36.291" style="stroke:#61AFEF;stroke-width:1.0;" width="10" x="66.5" y="1016.5664"/><rect fill="#282C34" height="31.291" style="stroke:#61AFEF;stroke-width:1.0;" width="10" x="179.5" y="133.4941"/><rect fill="#282C34" height="31.291" style="stroke:#61AFEF;stroke-width:1.0;" width="10" x="245.5" y="410.5313"/><rect fill="#282C34" height="31.291" style="stroke:#61AFEF;stroke-width:1.0;" width="10" x="245.5" y="579.9863"/><rect fill="#282C34" height="31.291" style="stroke:#61AFEF;stroke-width:1.0;" width="10" x="301" y="473.1133"/><rect fill="#282C34" height="93.873" style="stroke:#61AFEF;stroke-width:1.0;" width="10" x="356" y="642.5684"/><rect fill="#282C34" height="31.291" style="stroke:#61AFEF;stroke-width:1.0;" width="10" x="497" y="673.8594"/><rect fill="#282C34" height="107.543" style="stroke:#61AFEF;stroke-width:1.0;" width="10" x="548" y="767.7324"/><ellipse cx="7.5" cy="75.1621" fill="none" rx="4" ry="4" style="stroke:#61AFEF;stroke-width:1.5;"/><polygon fill="#61AFEF" points="49.5,71.9121,59.5,75.9121,49.5,79.9121,53.5,75.9121" style="stroke:#61AFEF;stroke-width:1.0;"/><line style="stroke:#61AFEF;stroke-width:1.0;" x1="12" x2="55.5" y1="75.9121" y2="75.9121"/><text fill="#ABB2BF" font-family="Segoe UI" font-size="13" lengthAdjust="spacing" textLength="27" x="15" y="70.6494">run()</text><path d="M10,90.9121 L83,90.9121 L83,100.2031 L73,110.2031 L10,110.2031 L10,90.9121 " fill="#424856" style="stroke:#ABB2BF;stroke-width:1.5;"/><rect fill="none" height="887.3633" style="stroke:#ABB2BF;stroke-width:1.5;" width="591" x="10" y="90.9121"/><text fill="#ABB2BF" font-family="Segoe UI" font-size="13" font-weight="bold" lengthAdjust="spacing" textLength="28" x="25" y="105.9404">loop</text><text fill="#ABB2BF" font-family="Segoe UI" font-size="11" font-weight="bold" lengthAdjust="spacing" textLength="106" x="98" y="104.7822">[La partita continua]</text><polygon fill="#61AFEF" points="167.5,129.4941,177.5,133.4941,167.5,137.4941,171.5,133.4941" style="stroke:#61AFEF;stroke-width:1.0;"/><line style="stroke:#61AFEF;stroke-width:1.0;" x1="71.5" x2="173.5" y1="133.4941" y2="133.4941"/><text fill="#ABB2BF" font-family="Segoe UI" font-size="13" lengthAdjust="spacing" textLength="89" x="78.5" y="128.2314">getNextPlayer()</text><polygon fill="#61AFEF" points="82.5,160.7852,72.5,164.7852,82.5,168.7852,78.5,164.7852" style="stroke:#61AFEF;stroke-width:1.0;"/><line style="stroke:#61AFEF;stroke-width:1.0;stroke-dasharray:2.0,2.0;" x1="76.5" x2="183.5" y1="164.7852" y2="164.7852"/><text fill="#ABB2BF" font-family="Segoe UI" font-size="13" lengthAdjust="spacing" textLength="74" x="88.5" y="159.5225">player:Player</text><path d="M20,179.7852 L93,179.7852 L93,189.0762 L83,199.0762 L20,199.0762 L20,179.7852 " fill="#424856" style="stroke:#ABB2BF;stroke-width:1.5;"/><rect fill="none" height="791.4902" style="stroke:#ABB2BF;stroke-width:1.5;" width="571" x="20" y="179.7852"/><text fill="#ABB2BF" font-family="Segoe UI" font-size="13" font-weight="bold" lengthAdjust="spacing" textLength="28" x="35" y="194.8135">loop</text><text fill="#ABB2BF" font-family="Segoe UI" font-size="11" font-weight="bold" lengthAdjust="spacing" textLength="172" x="108" y="193.6553">[&#200; il turno del giocatore corrente]</text><path d="M30,206.0762 L91,206.0762 L91,215.3672 L81,225.3672 L30,225.3672 L30,206.0762 " fill="#424856" style="stroke:#ABB2BF;stroke-width:1.5;"/><rect fill="none" height="758.1992" style="stroke:#ABB2BF;stroke-width:1.5;" width="551" x="30" y="206.0762"/><text fill="#ABB2BF" font-family="Segoe UI" font-size="13" font-weight="bold" lengthAdjust="spacing" textLength="16" x="45" y="221.1045">alt</text><text fill="#ABB2BF" font-family="Segoe UI" font-size="11" font-weight="bold" lengthAdjust="spacing" textLength="122" x="106" y="219.9463">[Il giocatore &#232; bloccato]</text><line style="stroke:#61AFEF;stroke-width:1.0;" x1="71.5" x2="118.5" y1="243.6582" y2="243.6582"/><line style="stroke:#61AFEF;stroke-width:1.0;" x1="118.5" x2="118.5" y1="243.6582" y2="256.6582"/><line style="stroke:#61AFEF;stroke-width:1.0;" x1="77.5" x2="118.5" y1="256.6582" y2="256.6582"/><polygon fill="#61AFEF" points="87.5,252.6582,77.5,256.6582,87.5,260.6582,83.5,256.6582" style="stroke:#61AFEF;stroke-width:1.0;"/><text fill="#ABB2BF" font-family="Segoe UI" font-size="13" lengthAdjust="spacing" textLength="31" x="83.5" y="238.3955">turn()</text><line style="stroke:#61AFEF;stroke-width:1.0;stroke-dasharray:2.0,2.0;" x1="76.5" x2="118.5" y1="280.6582" y2="280.6582"/><line style="stroke:#61AFEF;stroke-width:1.0;stroke-dasharray:2.0,2.0;" x1="118.5" x2="118.5" y1="280.6582" y2="293.6582"/><line style="stroke:#61AFEF;stroke-width:1.0;stroke-dasharray:2.0,2.0;" x1="71.5" x2="118.5" y1="293.6582" y2="293.6582"/><polygon fill="#61AFEF" points="81.5,289.6582,71.5,293.6582,81.5,297.6582,77.5,293.6582" style="stroke:#61AFEF;stroke-width:1.0;"/><line style="stroke:#ABB2BF;stroke-width:1.0;stroke-dasharray:2.0,2.0;" x1="30" x2="581" y1="297.6582" y2="297.6582"/><line style="stroke:#61AFEF;stroke-width:1.0;" x1="71.5" x2="118.5" y1="316.9492" y2="316.9492"/><line style="stroke:#61AFEF;stroke-width:1.0;" x1="118.5" x2="118.5" y1="316.9492" y2="329.9492"/><line style="stroke:#61AFEF;stroke-width:1.0;" x1="77.5" x2="118.5" y1="329.9492" y2="329.9492"/><polygon fill="#61AFEF" points="87.5,325.9492,77.5,329.9492,87.5,333.9492,83.5,329.9492" style="stroke:#61AFEF;stroke-width:1.0;"/><text fill="#ABB2BF" font-family="Segoe UI" font-size="13" lengthAdjust="spacing" textLength="31" x="83.5" y="311.6865">turn()</text><line style="stroke:#61AFEF;stroke-width:1.0;" x1="76.5" x2="123.5" y1="361.2402" y2="361.2402"/><line style="stroke:#61AFEF;stroke-width:1.0;" x1="123.5" x2="123.5" y1="361.2402" y2="374.2402"/><line style="stroke:#61AFEF;stroke-width:1.0;" x1="82.5" x2="123.5" y1="374.2402" y2="374.2402"/><polygon fill="#61AFEF" points="92.5,370.2402,82.5,374.2402,92.5,378.2402,88.5,374.2402" style="stroke:#61AFEF;stroke-width:1.0;"/><text fill="#ABB2BF" font-family="Segoe UI" font-size="13" lengthAdjust="spacing" textLength="52" x="88.5" y="355.9775">rollDice()</text><polygon fill="#61AFEF" points="233.5,406.5313,243.5,410.5313,233.5,414.5313,237.5,410.5313" style="stroke:#61AFEF;stroke-width:1.0;"/><line style="stroke:#61AFEF;stroke-width:1.0;" x1="81.5" x2="239.5" y1="410.5313" y2="410.5313"/><text fill="#ABB2BF" font-family="Segoe UI" font-size="13" lengthAdjust="spacing" textLength="73" x="88.5" y="405.2686">getPosition()</text><polygon fill="#61AFEF" points="92.5,437.8223,82.5,441.8223,92.5,445.8223,88.5,441.8223" style="stroke:#61AFEF;stroke-width:1.0;"/><line style="stroke:#61AFEF;stroke-width:1.0;stroke-dasharray:2.0,2.0;" x1="86.5" x2="249.5" y1="441.8223" y2="441.8223"/><text fill="#ABB2BF" font-family="Segoe UI" font-size="13" lengthAdjust="spacing" textLength="99" x="98.5" y="436.5596">playerPosition:int</text><polygon fill="#61AFEF" points="289,469.1133,299,473.1133,289,477.1133,293,473.1133" style="stroke:#61AFEF;stroke-width:1.0;"/><line style="stroke:#61AFEF;stroke-width:1.0;" x1="81.5" x2="295" y1="473.1133" y2="473.1133"/><text fill="#ABB2BF" font-family="Segoe UI" font-size="13" lengthAdjust="spacing" textLength="136" x="88.5" y="467.8506">roll(isInLastNCells:bool)</text><polygon fill="#61AFEF" points="92.5,500.4043,82.5,504.4043,92.5,508.4043,88.5,504.4043" style="stroke:#61AFEF;stroke-width:1.0;"/><line style="stroke:#61AFEF;stroke-width:1.0;stroke-dasharray:2.0,2.0;" x1="86.5" x2="305" y1="504.4043" y2="504.4043"/><text fill="#ABB2BF" font-family="Segoe UI" font-size="13" lengthAdjust="spacing" textLength="36" x="98.5" y="499.1416">roll:int</text><line style="stroke:#61AFEF;stroke-width:1.0;" x1="81.5" x2="128.5" y1="530.6953" y2="530.6953"/><line style="stroke:#61AFEF;stroke-width:1.0;" x1="128.5" x2="128.5" y1="530.6953" y2="543.6953"/><line style="stroke:#61AFEF;stroke-width:1.0;" x1="87.5" x2="128.5" y1="543.6953" y2="543.6953"/><polygon fill="#61AFEF" points="97.5,539.6953,87.5,543.6953,97.5,547.6953,93.5,543.6953" style="stroke:#61AFEF;stroke-width:1.0;"/><text fill="#ABB2BF" font-family="Segoe UI" font-size="13" lengthAdjust="spacing" textLength="40" x="93.5" y="525.4326">move()</text><polygon fill="#61AFEF" points="233.5,575.9863,243.5,579.9863,233.5,583.9863,237.5,579.9863" style="stroke:#61AFEF;stroke-width:1.0;"/><line style="stroke:#61AFEF;stroke-width:1.0;" x1="86.5" x2="239.5" y1="579.9863" y2="579.9863"/><text fill="#ABB2BF" font-family="Segoe UI" font-size="13" lengthAdjust="spacing" textLength="76" x="93.5" y="574.7236">move(roll:int)</text><polygon fill="#61AFEF" points="97.5,607.2773,87.5,611.2773,97.5,615.2773,93.5,611.2773" style="stroke:#61AFEF;stroke-width:1.0;"/><line style="stroke:#61AFEF;stroke-width:1.0;stroke-dasharray:2.0,2.0;" x1="91.5" x2="249.5" y1="611.2773" y2="611.2773"/><text fill="#ABB2BF" font-family="Segoe UI" font-size="13" lengthAdjust="spacing" textLength="64" x="103.5" y="606.0146">position:int</text><polygon fill="#61AFEF" points="344,638.5684,354,642.5684,344,646.5684,348,642.5684" style="stroke:#61AFEF;stroke-width:1.0;"/><line style="stroke:#61AFEF;stroke-width:1.0;" x1="86.5" x2="350" y1="642.5684" y2="642.5684"/><text fill="#ABB2BF" font-family="Segoe UI" font-size="13" lengthAdjust="spacing" textLength="112" x="93.5" y="637.3057">getCell(position:int)</text><polygon fill="#61AFEF" points="485,669.8594,495,673.8594,485,677.8594,489,673.8594" style="stroke:#61AFEF;stroke-width:1.0;"/><line style="stroke:#61AFEF;stroke-width:1.0;" x1="366" x2="491" y1="673.8594" y2="673.8594"/><text fill="#ABB2BF" font-family="Segoe UI" font-size="13" lengthAdjust="spacing" textLength="112" x="373" y="668.5967">getCell(position:int)</text><polygon fill="#61AFEF" points="377,701.1504,367,705.1504,377,709.1504,373,705.1504" style="stroke:#61AFEF;stroke-width:1.0;"/><line style="stroke:#61AFEF;stroke-width:1.0;stroke-dasharray:2.0,2.0;" x1="371" x2="501" y1="705.1504" y2="705.1504"/><text fill="#ABB2BF" font-family="Segoe UI" font-size="13" lengthAdjust="spacing" textLength="43" x="383" y="699.8877">cell:Cell</text><polygon fill="#61AFEF" points="97.5,732.4414,87.5,736.4414,97.5,740.4414,93.5,736.4414" style="stroke:#61AFEF;stroke-width:1.0;"/><line style="stroke:#61AFEF;stroke-width:1.0;stroke-dasharray:2.0,2.0;" x1="91.5" x2="360" y1="736.4414" y2="736.4414"/><text fill="#ABB2BF" font-family="Segoe UI" font-size="13" lengthAdjust="spacing" textLength="43" x="103.5" y="731.1787">cell:Cell</text><polygon fill="#61AFEF" points="536,763.7324,546,767.7324,536,771.7324,540,767.7324" style="stroke:#61AFEF;stroke-width:1.0;"/><line style="stroke:#61AFEF;stroke-width:1.0;" x1="86.5" x2="542" y1="767.7324" y2="767.7324"/><text fill="#ABB2BF" font-family="Segoe UI" font-size="13" lengthAdjust="spacing" textLength="43" x="93.5" y="762.4697">action()</text><polygon fill="#61AFEF" points="102.5,795.0234,92.5,799.0234,102.5,803.0234,98.5,799.0234" style="stroke:#61AFEF;stroke-width:1.0;"/><line style="stroke:#61AFEF;stroke-width:1.0;" x1="96.5" x2="547" y1="799.0234" y2="799.0234"/><text fill="#ABB2BF" font-family="Segoe UI" font-size="13" lengthAdjust="spacing" textLength="206" x="108.5" y="793.7607">sendMessage(colleague:Colleague)</text><rect fill="none" height="43.252" style="stroke:#ABB2BF;stroke-width:1.5;" width="126" x="37" y="807.0234"/><path d="M37,807.0234 L99,807.0234 L99,816.0234 L89,826.0234 L37,826.0234 L37,807.0234 " fill="#424856" style="stroke:#ABB2BF;stroke-width:2.0;"/><text fill="#ABB2BF" font-family="Segoe UI" font-size="13" font-weight="bold" lengthAdjust="spacing" textLength="17" x="50" y="823.0518">ref</text><text fill="#ABB2BF" font-family="Segoe UI" font-size="12" lengthAdjust="spacing" textLength="118" x="41" y="842.9727">Reagisce al messaggio</text><polygon fill="#61AFEF" points="536,857.2754,546,861.2754,536,865.2754,540,861.2754" style="stroke:#61AFEF;stroke-width:1.0;"/><line style="stroke:#61AFEF;stroke-width:1.0;stroke-dasharray:2.0,2.0;" x1="86.5" x2="542" y1="861.2754" y2="861.2754"/><polygon fill="#61AFEF" points="97.5,871.2754,87.5,875.2754,97.5,879.2754,93.5,875.2754" style="stroke:#61AFEF;stroke-width:1.0;"/><line style="stroke:#61AFEF;stroke-width:1.0;stroke-dasharray:2.0,2.0;" x1="91.5" x2="552" y1="875.2754" y2="875.2754"/><line style="stroke:#61AFEF;stroke-width:1.0;stroke-dasharray:2.0,2.0;" x1="86.5" x2="128.5" y1="894.2754" y2="894.2754"/><line style="stroke:#61AFEF;stroke-width:1.0;stroke-dasharray:2.0,2.0;" x1="128.5" x2="128.5" y1="894.2754" y2="907.2754"/><line style="stroke:#61AFEF;stroke-width:1.0;stroke-dasharray:2.0,2.0;" x1="81.5" x2="128.5" y1="907.2754" y2="907.2754"/><polygon fill="#61AFEF" points="91.5,903.2754,81.5,907.2754,91.5,911.2754,87.5,907.2754" style="stroke:#61AFEF;stroke-width:1.0;"/><line style="stroke:#61AFEF;stroke-width:1.0;stroke-dasharray:2.0,2.0;" x1="81.5" x2="123.5" y1="921.2754" y2="921.2754"/><line style="stroke:#61AFEF;stroke-width:1.0;stroke-dasharray:2.0,2.0;" x1="123.5" x2="123.5" y1="921.2754" y2="934.2754"/><line style="stroke:#61AFEF;stroke-width:1.0;stroke-dasharray:2.0,2.0;" x1="76.5" x2="123.5" y1="934.2754" y2="934.2754"/><polygon fill="#61AFEF" points="86.5,930.2754,76.5,934.2754,86.5,938.2754,82.5,934.2754" style="stroke:#61AFEF;stroke-width:1.0;"/><line style="stroke:#61AFEF;stroke-width:1.0;stroke-dasharray:2.0,2.0;" x1="76.5" x2="118.5" y1="948.2754" y2="948.2754"/><line style="stroke:#61AFEF;stroke-width:1.0;stroke-dasharray:2.0,2.0;" x1="118.5" x2="118.5" y1="948.2754" y2="961.2754"/><line style="stroke:#61AFEF;stroke-width:1.0;stroke-dasharray:2.0,2.0;" x1="71.5" x2="118.5" y1="961.2754" y2="961.2754"/><polygon fill="#61AFEF" points="81.5,957.2754,71.5,961.2754,81.5,965.2754,77.5,961.2754" style="stroke:#61AFEF;stroke-width:1.0;"/><line style="stroke:#61AFEF;stroke-width:1.0;" x1="71.5" x2="118.5" y1="1003.5664" y2="1003.5664"/><line style="stroke:#61AFEF;stroke-width:1.0;" x1="118.5" x2="118.5" y1="1003.5664" y2="1016.5664"/><line style="stroke:#61AFEF;stroke-width:1.0;" x1="77.5" x2="118.5" y1="1016.5664" y2="1016.5664"/><polygon fill="#61AFEF" points="87.5,1012.5664,77.5,1016.5664,87.5,1020.5664,83.5,1016.5664" style="stroke:#61AFEF;stroke-width:1.0;"/><text fill="#ABB2BF" font-family="Segoe UI" font-size="13" lengthAdjust="spacing" textLength="46" x="83.5" y="998.3037">results()</text><polygon fill="#61AFEF" points="11,1048.8574,1,1052.8574,11,1056.8574,7,1052.8574" style="stroke:#61AFEF;stroke-width:1.0;"/><line style="stroke:#61AFEF;stroke-width:1.0;" x1="5" x2="65.5" y1="1052.8574" y2="1052.8574"/><text fill="#ABB2BF" font-family="Segoe UI" font-size="13" lengthAdjust="spacing" textLength="38" x="17" y="1047.5947">results</text><!--SRC=[hLJDRjGm4BxxAORReYe9lKQ80-LIgQqghZtDEaFMMiUExF42Ry2Zy1vzCVoJX0sai49OYhBv_CqttypO-qePgKD7S60UVTiq3Z_NlU93s0TFJbh3PBYMTcX6PAUEbVHuRAoXgaDth4QDXiEWApxGGCtfkdvJNpVvenuZBiI8ZfLKO-J1FR8y26cr9idA6W-F6h-IyojMmLRG1oLf1RotwBgLqWrflTP9Y11FjdfN4iFL5RJWWjcz5jhQ4UuGCfyHKg7A11GGLs77iCbT2Uo97-WB5onA9AOZ3ix0cB5sCfusilxpDr0Q4iD2HnfwPIMoTHJJEHVxIfcR5cg6stF6ytVOQolJrq9QUJihAMMO3Csh65iWqfx-HMQBvcBJqpnUefOkB3rxj5wb2MqQd3etSrfbU5iq9VoPVgVyhRb3pmzvwktUMhqfdyWlYvuLDTZJHGLbtgowNT5VQybdT-bFgc1t7hHMBUGObIkzD6ho8YEhpTVWuit5PTefwL1kp2zlhtleoNJtv3tsjCit4_j0xStywrU7do3sqaq2BNoC9ENZb573a5NYPVZJcVwVK7GkvdTwDiyz-Q3PnpuylQqMsnCgEafjEY7Jz2_t6_03]--></g></svg>