<?xml version="1.0" encoding="us-ascii" standalone="no"?><svg xmlns="http://www.w3.org/2000/svg" xmlns:xlink="http://www.w3.org/1999/xlink" contentStyleType="text/css" height="1547px" preserveAspectRatio="none" style="width:785px;height:1547px;background:#282C34;" version="1.1" viewBox="0 0 785 1547" width="785px" zoomAndPan="magnify"><defs/><g><rect fill="#282C34" height="1547" style="stroke:none;stroke-width:1.0;" width="785" x="0" y="0"/><rect fill="#282C34" height="228.0762" style="stroke:#61AFEF;stroke-width:1.0;" width="10" x="130" y="116.9121"/><rect fill="#282C34" height="62.582" style="stroke:#61AFEF;stroke-width:1.0;" width="10" x="135" y="201.4941"/><rect fill="#282C34" height="93.873" style="stroke:#61AFEF;stroke-width:1.0;" width="10" x="130" y="388.6094"/><rect fill="#282C34" height="14" style="stroke:#61AFEF;stroke-width:1.0;" width="10" x="130" y="1425.8066"/><rect fill="#282C34" height="1084.8184" style="stroke:#61AFEF;stroke-width:1.0;" width="10" x="332" y="354.9883"/><rect fill="#282C34" height="117.873" style="stroke:#61AFEF;stroke-width:1.0;" width="10" x="337" y="598.3555"/><rect fill="#282C34" height="28" style="stroke:#61AFEF;stroke-width:1.0;" width="10" x="337" y="839.1016"/><rect fill="#282C34" height="109.9121" style="stroke:#61AFEF;stroke-width:1.0;" width="10" x="337" y="944.6836"/><rect fill="#282C34" height="67.291" style="stroke:#61AFEF;stroke-width:1.0;" width="10" x="337" y="1288.9336"/><rect fill="#282C34" height="294.3379" style="stroke:#61AFEF;stroke-width:1.0;" width="10" x="532" y="1024.5957"/><rect fill="#282C34" height="1226.3125" style="stroke:#ABB2BF;stroke-width:1.5;" width="758.5" x="10" y="221.4941"/><line style="stroke:#61AFEF;stroke-width:0.5;stroke-dasharray:5.0,5.0;" x1="45" x2="45" y1="83.6211" y2="1464.8066"/><line style="stroke:#61AFEF;stroke-width:0.5;stroke-dasharray:5.0,5.0;" x1="135" x2="135" y1="83.6211" y2="1464.8066"/><line style="stroke:#61AFEF;stroke-width:0.5;stroke-dasharray:5.0,5.0;" x1="337" x2="337" y1="353.5078" y2="1464.8066"/><line style="stroke:#61AFEF;stroke-width:0.5;stroke-dasharray:5.0,5.0;" x1="536.5" x2="536.5" y1="989.4941" y2="1464.8066"/><line style="stroke:#61AFEF;stroke-width:0.5;stroke-dasharray:5.0,5.0;" x1="625.5" x2="625.5" y1="272.5957" y2="1464.8066"/><line style="stroke:#61AFEF;stroke-width:0.5;stroke-dasharray:5.0,5.0;" x1="712.5" x2="712.5" y1="83.6211" y2="1464.8066"/><text fill="#ABB2BF" font-family="Segoe UI" font-size="14" lengthAdjust="spacing" textLength="44" x="20" y="80.1074">Utente</text><ellipse cx="45" cy="13.5" fill="#424856" rx="8" ry="8" style="stroke:#61AFEF;stroke-width:0.5;"/><path d="M45,21.5 L45,48.5 M32,29.5 L58,29.5 M45,48.5 L32,63.5 M45,48.5 L58,63.5 " fill="none" style="stroke:#61AFEF;stroke-width:0.5;"/><text fill="#ABB2BF" font-family="Segoe UI" font-size="14" lengthAdjust="spacing" textLength="44" x="20" y="1478.9141">Utente</text><ellipse cx="45" cy="1490.9277" fill="#424856" rx="8" ry="8" style="stroke:#61AFEF;stroke-width:0.5;"/><path d="M45,1498.9277 L45,1525.9277 M32,1506.9277 L58,1506.9277 M45,1525.9277 L32,1540.9277 M45,1525.9277 L58,1540.9277 " fill="none" style="stroke:#61AFEF;stroke-width:0.5;"/><rect fill="#424856" height="32.6211" rx="2.5" ry="2.5" style="stroke:#61AFEF;stroke-width:0.5;" width="42" x="114" y="50"/><text fill="#ABB2BF" font-family="Segoe UI" font-size="14" lengthAdjust="spacing" textLength="28" x="121" y="72.1074">App</text><rect fill="#424856" height="32.6211" rx="2.5" ry="2.5" style="stroke:#61AFEF;stroke-width:0.5;" width="42" x="114" y="1463.8066"/><text fill="#ABB2BF" font-family="Segoe UI" font-size="14" lengthAdjust="spacing" textLength="28" x="121" y="1485.9141">App</text><rect fill="#424856" height="32.6211" rx="2.5" ry="2.5" style="stroke:#61AFEF;stroke-width:0.5;" width="38" x="318" y="1463.8066"/><text fill="#ABB2BF" font-family="Segoe UI" font-size="14" lengthAdjust="spacing" textLength="24" x="325" y="1485.9141">GUI</text><rect fill="#424856" height="32.6211" rx="2.5" ry="2.5" style="stroke:#61AFEF;stroke-width:0.5;" width="95" x="489.5" y="1463.8066"/><text fill="#ABB2BF" font-family="Segoe UI" font-size="14" lengthAdjust="spacing" textLength="81" x="496.5" y="1485.9141">Simulazione</text><rect fill="#424856" height="32.6211" rx="2.5" ry="2.5" style="stroke:#61AFEF;stroke-width:0.5;" width="62" x="594.5" y="1463.8066"/><text fill="#ABB2BF" font-family="Segoe UI" font-size="14" lengthAdjust="spacing" textLength="48" x="601.5" y="1485.9141">Logger</text><text fill="#ABB2BF" font-family="Segoe UI" font-size="14" lengthAdjust="spacing" textLength="86" x="666.5" y="80.1074">Windows file</text><path d="M694.5,29 C694.5,19 712.5,19 712.5,19 C712.5,19 730.5,19 730.5,29 L730.5,55 C730.5,65 712.5,65 712.5,65 C712.5,65 694.5,65 694.5,55 L694.5,29 " fill="#424856" style="stroke:#61AFEF;stroke-width:1.5;"/><path d="M694.5,29 C694.5,39 712.5,39 712.5,39 C712.5,39 730.5,39 730.5,29 " fill="none" style="stroke:#61AFEF;stroke-width:1.5;"/><text fill="#ABB2BF" font-family="Segoe UI" font-size="14" lengthAdjust="spacing" textLength="86" x="666.5" y="1478.9141">Windows file</text><path d="M694.5,1492.4277 C694.5,1482.4277 712.5,1482.4277 712.5,1482.4277 C712.5,1482.4277 730.5,1482.4277 730.5,1492.4277 L730.5,1518.4277 C730.5,1528.4277 712.5,1528.4277 712.5,1528.4277 C712.5,1528.4277 694.5,1528.4277 694.5,1518.4277 L694.5,1492.4277 " fill="#424856" style="stroke:#61AFEF;stroke-width:1.5;"/><path d="M694.5,1492.4277 C694.5,1502.4277 712.5,1502.4277 712.5,1502.4277 C712.5,1502.4277 730.5,1502.4277 730.5,1492.4277 " fill="none" style="stroke:#61AFEF;stroke-width:1.5;"/><rect fill="#282C34" height="228.0762" style="stroke:#61AFEF;stroke-width:1.0;" width="10" x="130" y="116.9121"/><rect fill="#282C34" height="62.582" style="stroke:#61AFEF;stroke-width:1.0;" width="10" x="135" y="201.4941"/><rect fill="#282C34" height="93.873" style="stroke:#61AFEF;stroke-width:1.0;" width="10" x="130" y="388.6094"/><rect fill="#282C34" height="14" style="stroke:#61AFEF;stroke-width:1.0;" width="10" x="130" y="1425.8066"/><rect fill="#282C34" height="1084.8184" style="stroke:#61AFEF;stroke-width:1.0;" width="10" x="332" y="354.9883"/><rect fill="#282C34" height="117.873" style="stroke:#61AFEF;stroke-width:1.0;" width="10" x="337" y="598.3555"/><rect fill="#282C34" height="28" style="stroke:#61AFEF;stroke-width:1.0;" width="10" x="337" y="839.1016"/><rect fill="#282C34" height="109.9121" style="stroke:#61AFEF;stroke-width:1.0;" width="10" x="337" y="944.6836"/><rect fill="#282C34" height="67.291" style="stroke:#61AFEF;stroke-width:1.0;" width="10" x="337" y="1288.9336"/><rect fill="#282C34" height="294.3379" style="stroke:#61AFEF;stroke-width:1.0;" width="10" x="532" y="1024.5957"/><polygon fill="#61AFEF" points="118,112.9121,128,116.9121,118,120.9121,122,116.9121" style="stroke:#61AFEF;stroke-width:1.0;"/><line style="stroke:#61AFEF;stroke-width:1.0;" x1="45" x2="124" y1="116.9121" y2="116.9121"/><text fill="#ABB2BF" font-family="Segoe UI" font-size="13" font-style="italic" lengthAdjust="spacing" textLength="29" x="52" y="111.6494">avvia</text><text fill="#ABB2BF" font-family="Segoe UI" font-size="13" lengthAdjust="spacing" textLength="8" x="85" y="111.6494">l'</text><text fill="#ABB2BF" font-family="Segoe UI" font-size="13" font-weight="bold" lengthAdjust="spacing" textLength="25" x="93" y="111.6494">App</text><rect fill="#424856" height="3" style="stroke:#424856;stroke-width:1.0;" width="778.5" x="0" y="146.5576"/><line style="stroke:#ABB2BF;stroke-width:1.0;" x1="0" x2="778.5" y1="146.5576" y2="146.5576"/><line style="stroke:#ABB2BF;stroke-width:1.0;" x1="0" x2="778.5" y1="149.5576" y2="149.5576"/><rect fill="#424856" height="25.291" style="stroke:#ABB2BF;stroke-width:2.0;" width="107" x="335.75" y="134.9121"/><text fill="#ABB2BF" font-family="Segoe UI" font-size="13" font-weight="bold" lengthAdjust="spacing" textLength="93" x="341.75" y="152.9404">Inizializzazione</text><line style="stroke:#61AFEF;stroke-width:1.0;" x1="140" x2="187" y1="188.4941" y2="188.4941"/><line style="stroke:#61AFEF;stroke-width:1.0;" x1="187" x2="187" y1="188.4941" y2="201.4941"/><line style="stroke:#61AFEF;stroke-width:1.0;" x1="146" x2="187" y1="201.4941" y2="201.4941"/><polygon fill="#61AFEF" points="156,197.4941,146,201.4941,156,205.4941,152,201.4941" style="stroke:#61AFEF;stroke-width:1.0;"/><text fill="#ABB2BF" font-family="Segoe UI" font-size="13" lengthAdjust="spacing" textLength="87" x="152" y="183.2314">setupLogger()</text><path d="M10,221.4941 L75,221.4941 L75,230.7852 L65,240.7852 L10,240.7852 L10,221.4941 " fill="#424856" style="stroke:#ABB2BF;stroke-width:1.5;"/><rect fill="none" height="1226.3125" style="stroke:#ABB2BF;stroke-width:1.5;" width="758.5" x="10" y="221.4941"/><text fill="#ABB2BF" font-family="Segoe UI" font-size="13" font-weight="bold" lengthAdjust="spacing" textLength="20" x="25" y="236.5225">par</text><polygon fill="#61AFEF" points="582.5,260.0762,592.5,264.0762,582.5,268.0762,586.5,264.0762" style="stroke:#61AFEF;stroke-width:1.0;"/><line style="stroke:#61AFEF;stroke-width:1.0;" x1="140" x2="588.5" y1="264.0762" y2="264.0762"/><text fill="#ABB2BF" font-family="Segoe UI" font-size="13" lengthAdjust="spacing" textLength="44" x="147" y="258.8135">setup()</text><rect fill="#424856" height="32.6211" rx="2.5" ry="2.5" style="stroke:#61AFEF;stroke-width:0.5;" width="62" x="594.5" y="240.7852"/><text fill="#ABB2BF" font-family="Segoe UI" font-size="14" lengthAdjust="spacing" textLength="48" x="601.5" y="262.8926">Logger</text><path d="M565,289.4063 L565,316.4063 L685,316.4063 L685,299.4063 L675,289.4063 L565,289.4063 " fill="#E5C07B" style="stroke:#282C34;stroke-width:0.5;"/><path d="M675,289.4063 L675,299.4063 L685,299.4063 L675,289.4063 " fill="#E5C07B" style="stroke:#282C34;stroke-width:0.5;"/><text fill="#282C34" font-family="Segoe UI" font-size="13" lengthAdjust="spacing" textLength="99" x="571" y="308.4346">Logging attivit&#224;</text><polygon fill="#61AFEF" points="306,340.9883,316,344.9883,306,348.9883,310,344.9883" style="stroke:#61AFEF;stroke-width:1.0;"/><line style="stroke:#61AFEF;stroke-width:1.0;" x1="135" x2="312" y1="344.9883" y2="344.9883"/><text fill="#ABB2BF" font-family="Segoe UI" font-size="13" lengthAdjust="spacing" textLength="51" x="142" y="339.7256">launch()</text><rect fill="#424856" height="32.6211" rx="2.5" ry="2.5" style="stroke:#61AFEF;stroke-width:0.5;" width="38" x="318" y="321.6973"/><text fill="#ABB2BF" font-family="Segoe UI" font-size="14" lengthAdjust="spacing" textLength="24" x="325" y="343.8047">GUI</text><polygon fill="#61AFEF" points="151,384.6094,141,388.6094,151,392.6094,147,388.6094" style="stroke:#61AFEF;stroke-width:1.0;"/><line style="stroke:#61AFEF;stroke-width:1.0;" x1="145" x2="331" y1="388.6094" y2="388.6094"/><text fill="#ABB2BF" font-family="Segoe UI" font-size="13" lengthAdjust="spacing" textLength="109" x="157" y="383.3467">start(stage:Stage)</text><polygon fill="#61AFEF" points="151,415.9004,141,419.9004,151,423.9004,147,419.9004" style="stroke:#61AFEF;stroke-width:1.0;"/><line style="stroke:#61AFEF;stroke-width:1.0;" x1="145" x2="711.5" y1="419.9004" y2="419.9004"/><text fill="#ABB2BF" font-family="Segoe UI" font-size="13" lengthAdjust="spacing" textLength="142" x="157" y="414.6377">load(mainMenu:Scene)</text><polygon fill="#61AFEF" points="320,447.1914,330,451.1914,320,455.1914,324,451.1914" style="stroke:#61AFEF;stroke-width:1.0;"/><line style="stroke:#61AFEF;stroke-width:1.0;" x1="140" x2="326" y1="451.1914" y2="451.1914"/><text fill="#ABB2BF" font-family="Segoe UI" font-size="13" lengthAdjust="spacing" textLength="168" x="147" y="445.9287">setScene(mainMenu:Scene)</text><polygon fill="#61AFEF" points="320,478.4824,330,482.4824,320,486.4824,324,482.4824" style="stroke:#61AFEF;stroke-width:1.0;"/><line style="stroke:#61AFEF;stroke-width:1.0;" x1="135" x2="326" y1="482.4824" y2="482.4824"/><text fill="#ABB2BF" font-family="Segoe UI" font-size="13" lengthAdjust="spacing" textLength="42" x="142" y="477.2197">show()</text><rect fill="#424856" height="3" style="stroke:#424856;stroke-width:1.0;" width="778.5" x="0" y="512.1279"/><line style="stroke:#ABB2BF;stroke-width:1.0;" x1="0" x2="778.5" y1="512.1279" y2="512.1279"/><line style="stroke:#ABB2BF;stroke-width:1.0;" x1="0" x2="778.5" y1="515.1279" y2="515.1279"/><rect fill="#424856" height="25.291" style="stroke:#ABB2BF;stroke-width:2.0;" width="114" x="332.25" y="500.4824"/><text fill="#ABB2BF" font-family="Segoe UI" font-size="13" font-weight="bold" lengthAdjust="spacing" textLength="100" x="338.25" y="518.5107">Menu Principale</text><polygon fill="#61AFEF" points="320,555.0645,330,559.0645,320,563.0645,324,559.0645" style="stroke:#61AFEF;stroke-width:1.0;"/><line style="stroke:#61AFEF;stroke-width:1.0;" x1="45" x2="326" y1="559.0645" y2="559.0645"/><text fill="#ABB2BF" font-family="Segoe UI" font-size="13" font-style="italic" lengthAdjust="spacing" textLength="31" x="52" y="553.8018">clicca</text><text fill="#ABB2BF" font-family="Segoe UI" font-size="13" lengthAdjust="spacing" textLength="14" x="87" y="553.8018">su</text><text fill="#ABB2BF" font-family="Segoe UI" font-size="13" font-weight="bold" lengthAdjust="spacing" textLength="118" x="105" y="553.8018">Nuova simulazione</text><line style="stroke:#61AFEF;stroke-width:1.0;" x1="342" x2="389" y1="585.3555" y2="585.3555"/><line style="stroke:#61AFEF;stroke-width:1.0;" x1="389" x2="389" y1="585.3555" y2="598.3555"/><line style="stroke:#61AFEF;stroke-width:1.0;" x1="348" x2="389" y1="598.3555" y2="598.3555"/><polygon fill="#61AFEF" points="358,594.3555,348,598.3555,358,602.3555,354,598.3555" style="stroke:#61AFEF;stroke-width:1.0;"/><text fill="#ABB2BF" font-family="Segoe UI" font-size="13" lengthAdjust="spacing" textLength="165" x="354" y="580.0928">eventListener(event:Event)</text><polygon fill="#61AFEF" points="358,630.6465,348,634.6465,358,638.6465,354,634.6465" style="stroke:#61AFEF;stroke-width:1.0;"/><line style="stroke:#61AFEF;stroke-width:1.0;" x1="352" x2="711.5" y1="634.6465" y2="634.6465"/><text fill="#ABB2BF" font-family="Segoe UI" font-size="13" lengthAdjust="spacing" textLength="145" x="364" y="629.3838">load(setupMenu:Scene)</text><line style="stroke:#61AFEF;stroke-width:1.0;" x1="347" x2="389" y1="665.9375" y2="665.9375"/><line style="stroke:#61AFEF;stroke-width:1.0;" x1="389" x2="389" y1="665.9375" y2="678.9375"/><line style="stroke:#61AFEF;stroke-width:1.0;" x1="348" x2="389" y1="678.9375" y2="678.9375"/><polygon fill="#61AFEF" points="358,674.9375,348,678.9375,358,682.9375,354,678.9375" style="stroke:#61AFEF;stroke-width:1.0;"/><text fill="#ABB2BF" font-family="Segoe UI" font-size="13" lengthAdjust="spacing" textLength="171" x="354" y="660.6748">setScene(setupMenu:Scene)</text><line style="stroke:#61AFEF;stroke-width:1.0;" x1="347" x2="389" y1="715.2285" y2="715.2285"/><line style="stroke:#61AFEF;stroke-width:1.0;" x1="389" x2="389" y1="715.2285" y2="728.2285"/><line style="stroke:#61AFEF;stroke-width:1.0;" x1="342" x2="389" y1="728.2285" y2="728.2285"/><polygon fill="#61AFEF" points="352,724.2285,342,728.2285,352,732.2285,348,728.2285" style="stroke:#61AFEF;stroke-width:1.0;"/><text fill="#ABB2BF" font-family="Segoe UI" font-size="13" lengthAdjust="spacing" textLength="42" x="354" y="709.9658">show()</text><rect fill="#424856" height="3" style="stroke:#424856;stroke-width:1.0;" width="778.5" x="0" y="752.874"/><line style="stroke:#ABB2BF;stroke-width:1.0;" x1="0" x2="778.5" y1="752.874" y2="752.874"/><line style="stroke:#ABB2BF;stroke-width:1.0;" x1="0" x2="778.5" y1="755.874" y2="755.874"/><rect fill="#424856" height="25.291" style="stroke:#ABB2BF;stroke-width:2.0;" width="103" x="337.75" y="741.2285"/><text fill="#ABB2BF" font-family="Segoe UI" font-size="13" font-weight="bold" lengthAdjust="spacing" textLength="89" x="343.75" y="759.2568">Menu di setup</text><polygon fill="#61AFEF" points="320,795.8105,330,799.8105,320,803.8105,324,799.8105" style="stroke:#61AFEF;stroke-width:1.0;"/><line style="stroke:#61AFEF;stroke-width:1.0;" x1="45" x2="326" y1="799.8105" y2="799.8105"/><text fill="#ABB2BF" font-family="Segoe UI" font-size="13" font-style="italic" lengthAdjust="spacing" textLength="31" x="52" y="794.5479">clicca</text><text fill="#ABB2BF" font-family="Segoe UI" font-size="13" lengthAdjust="spacing" textLength="29" x="87" y="794.5479">sulle</text><text fill="#ABB2BF" font-family="Segoe UI" font-size="13" font-weight="bold" lengthAdjust="spacing" textLength="80" x="120" y="794.5479">Impostazioni</text><line style="stroke:#61AFEF;stroke-width:1.0;" x1="347" x2="389" y1="831.1016" y2="831.1016"/><line style="stroke:#61AFEF;stroke-width:1.0;" x1="389" x2="389" y1="831.1016" y2="844.1016"/><line style="stroke:#61AFEF;stroke-width:1.0;" x1="348" x2="389" y1="844.1016" y2="844.1016"/><polygon fill="#61AFEF" points="358,840.1016,348,844.1016,358,848.1016,354,844.1016" style="stroke:#61AFEF;stroke-width:1.0;"/><text fill="#ABB2BF" font-family="Segoe UI" font-size="13" lengthAdjust="spacing" textLength="165" x="354" y="825.8389">eventListener(event:Event)</text><polygon fill="#61AFEF" points="320,901.3926,330,905.3926,320,909.3926,324,905.3926" style="stroke:#61AFEF;stroke-width:1.0;"/><line style="stroke:#61AFEF;stroke-width:1.0;" x1="45" x2="326" y1="905.3926" y2="905.3926"/><text fill="#ABB2BF" font-family="Segoe UI" font-size="13" font-style="italic" lengthAdjust="spacing" textLength="31" x="52" y="900.1299">clicca</text><text fill="#ABB2BF" font-family="Segoe UI" font-size="13" lengthAdjust="spacing" textLength="14" x="87" y="900.1299">su</text><text fill="#ABB2BF" font-family="Segoe UI" font-size="13" font-weight="bold" lengthAdjust="spacing" textLength="79" x="105" y="900.1299">Avvia partita</text><line style="stroke:#61AFEF;stroke-width:1.0;" x1="342" x2="389" y1="931.6836" y2="931.6836"/><line style="stroke:#61AFEF;stroke-width:1.0;" x1="389" x2="389" y1="931.6836" y2="944.6836"/><line style="stroke:#61AFEF;stroke-width:1.0;" x1="348" x2="389" y1="944.6836" y2="944.6836"/><polygon fill="#61AFEF" points="358,940.6836,348,944.6836,358,948.6836,354,944.6836" style="stroke:#61AFEF;stroke-width:1.0;"/><text fill="#ABB2BF" font-family="Segoe UI" font-size="13" lengthAdjust="spacing" textLength="165" x="354" y="926.4209">eventListener(event:Event)</text><polygon fill="#61AFEF" points="477.5,976.9746,487.5,980.9746,477.5,984.9746,481.5,980.9746" style="stroke:#61AFEF;stroke-width:1.0;"/><line style="stroke:#61AFEF;stroke-width:1.0;" x1="347" x2="483.5" y1="980.9746" y2="980.9746"/><text fill="#ABB2BF" font-family="Segoe UI" font-size="13" lengthAdjust="spacing" textLength="35" x="354" y="975.7119">new()</text><rect fill="#424856" height="32.6211" rx="2.5" ry="2.5" style="stroke:#61AFEF;stroke-width:0.5;" width="95" x="489.5" y="957.6836"/><text fill="#ABB2BF" font-family="Segoe UI" font-size="14" lengthAdjust="spacing" textLength="81" x="496.5" y="979.791">Simulazione</text><polygon fill="#61AFEF" points="520,1020.5957,530,1024.5957,520,1028.5957,524,1024.5957" style="stroke:#61AFEF;stroke-width:1.0;"/><line style="stroke:#61AFEF;stroke-width:1.0;" x1="347" x2="526" y1="1024.5957" y2="1024.5957"/><text fill="#ABB2BF" font-family="Segoe UI" font-size="13" lengthAdjust="spacing" textLength="38" x="354" y="1019.333">start()</text><rect fill="none" height="43.252" style="stroke:#ABB2BF;stroke-width:1.5;" width="162" x="315" y="1062.5957"/><path d="M315,1062.5957 L377,1062.5957 L377,1071.5957 L367,1081.5957 L315,1081.5957 L315,1062.5957 " fill="#424856" style="stroke:#ABB2BF;stroke-width:2.0;"/><text fill="#ABB2BF" font-family="Segoe UI" font-size="13" font-weight="bold" lengthAdjust="spacing" textLength="17" x="328" y="1078.624">ref</text><text fill="#ABB2BF" font-family="Segoe UI" font-size="12" lengthAdjust="spacing" textLength="154" x="319" y="1098.5449">Cambio scena a Simulazione</text><rect fill="#424856" height="3" style="stroke:#424856;stroke-width:1.0;" width="778.5" x="0" y="1132.4932"/><line style="stroke:#ABB2BF;stroke-width:1.0;" x1="0" x2="778.5" y1="1132.4932" y2="1132.4932"/><line style="stroke:#ABB2BF;stroke-width:1.0;" x1="0" x2="778.5" y1="1135.4932" y2="1135.4932"/><rect fill="#424856" height="25.291" style="stroke:#ABB2BF;stroke-width:2.0;" width="89" x="344.75" y="1120.8477"/><text fill="#ABB2BF" font-family="Segoe UI" font-size="13" font-weight="bold" lengthAdjust="spacing" textLength="75" x="350.75" y="1138.876">Simulazione</text><rect fill="none" height="59.2129" style="stroke:#ABB2BF;stroke-width:1.5;" width="113" x="486.5" y="1156.1387"/><path d="M486.5,1156.1387 L548.5,1156.1387 L548.5,1165.1387 L538.5,1175.1387 L486.5,1175.1387 L486.5,1156.1387 " fill="#424856" style="stroke:#ABB2BF;stroke-width:2.0;"/><text fill="#ABB2BF" font-family="Segoe UI" font-size="13" font-weight="bold" lengthAdjust="spacing" textLength="17" x="499.5" y="1172.167">ref</text><text fill="#ABB2BF" font-family="Segoe UI" font-size="12" lengthAdjust="spacing" textLength="105" x="490.5" y="1192.0879">Sequence Diagram</text><text fill="#ABB2BF" font-family="Segoe UI" font-size="12" lengthAdjust="spacing" textLength="75" x="505.5" y="1208.0488">(Simulazione)</text><rect fill="#424856" height="3" style="stroke:#424856;stroke-width:1.0;" width="778.5" x="0" y="1241.9971"/><line style="stroke:#ABB2BF;stroke-width:1.0;" x1="0" x2="778.5" y1="1241.9971" y2="1241.9971"/><line style="stroke:#ABB2BF;stroke-width:1.0;" x1="0" x2="778.5" y1="1244.9971" y2="1244.9971"/><rect fill="#424856" height="25.291" style="stroke:#ABB2BF;stroke-width:2.0;" width="65" x="356.75" y="1230.3516"/><text fill="#ABB2BF" font-family="Segoe UI" font-size="13" font-weight="bold" lengthAdjust="spacing" textLength="51" x="362.75" y="1248.3799">Risultati</text><polygon fill="#61AFEF" points="358,1284.9336,348,1288.9336,358,1292.9336,354,1288.9336" style="stroke:#61AFEF;stroke-width:1.0;"/><line style="stroke:#61AFEF;stroke-width:1.0;" x1="352" x2="531" y1="1288.9336" y2="1288.9336"/><text fill="#ABB2BF" font-family="Segoe UI" font-size="13" lengthAdjust="spacing" textLength="51" x="364" y="1283.6709">results()</text><line style="stroke:#61AFEF;stroke-width:1.0;" x1="347" x2="389" y1="1355.2246" y2="1355.2246"/><line style="stroke:#61AFEF;stroke-width:1.0;" x1="389" x2="389" y1="1355.2246" y2="1368.2246"/><line style="stroke:#61AFEF;stroke-width:1.0;" x1="342" x2="389" y1="1368.2246" y2="1368.2246"/><polygon fill="#61AFEF" points="352,1364.2246,342,1368.2246,352,1372.2246,348,1368.2246" style="stroke:#61AFEF;stroke-width:1.0;"/><text fill="#ABB2BF" font-family="Segoe UI" font-size="13" lengthAdjust="spacing" textLength="120" x="354" y="1349.9619">showAllertResults()</text><polygon fill="#61AFEF" points="320,1390.5156,330,1394.5156,320,1398.5156,324,1394.5156" style="stroke:#61AFEF;stroke-width:1.0;"/><line style="stroke:#61AFEF;stroke-width:1.0;" x1="45" x2="326" y1="1394.5156" y2="1394.5156"/><text fill="#ABB2BF" font-family="Segoe UI" font-size="13" font-style="italic" lengthAdjust="spacing" textLength="31" x="52" y="1389.2529">clicca</text><text fill="#ABB2BF" font-family="Segoe UI" font-size="13" lengthAdjust="spacing" textLength="29" x="87" y="1389.2529">sulle</text><text fill="#ABB2BF" font-family="Segoe UI" font-size="13" font-weight="bold" lengthAdjust="spacing" textLength="23" x="120" y="1389.2529">Exit</text><polygon fill="#61AFEF" points="151,1421.8066,141,1425.8066,151,1429.8066,147,1425.8066" style="stroke:#61AFEF;stroke-width:1.0;"/><line style="stroke:#61AFEF;stroke-width:1.0;" x1="145" x2="331" y1="1425.8066" y2="1425.8066"/><text fill="#ABB2BF" font-family="Segoe UI" font-size="13" lengthAdjust="spacing" textLength="41" x="157" y="1420.5439">close()</text><polygon fill="#61AFEF" points="325,1435.8066,335,1439.8066,325,1443.8066,329,1439.8066" style="stroke:#61AFEF;stroke-width:1.0;"/><line style="stroke:#61AFEF;stroke-width:1.0;" x1="135" x2="331" y1="1439.8066" y2="1439.8066"/><!--SRC=[dLJ1Rjim3BtxAxHUbgP8l5u3P42m5KE1RXWQ5BlqmiYiGrIMF4bsXdpD_cK_Difo4ZbDWA0z61L5FlAzH-K3QQcQ0iNQ-zhDyjp2PbgINpUhng6LHdlKVYfDbTVWBRrEf8FNt6YS561V9xK2xPjAJVmQAypRs-cdwMtU7QOrnxCCf3TMF0KOp6gmdYJLN2GMTJquVtkw7voNL3KAjiIz1l47KvPeim8yhC2XkFf5kZ0R9rv8uPK09pOna6MngvXy3it4pOsOYJo7jYN8Sw4-ZiSS7e-pR3w_rxGbKBJTnexpUHPAqag7lgbZyz5r9Yq2G_V3bDOqjU0fCy5_VMMysrLoJRZJXgjCo_7zTVY7T2d0Ush9__lR9HR8ob4RcWIbGgZl6OHAsl0n3gYWqNBTzpbH7X87X3ohEk9lYRDb-CRANhrTAkCQA4OLaFwEkfaj9Ue-CncW8zbTNP2vDflJKtQn-JnKYv-MLvCTLy6B43-O6M7oN2gICbZf6Z4U_sXC2y8TjeQTJMZlPSAMSHx8CHmxsPrcT-7xXdxiqz7lB3ncbI0d_2z8FIb0i3KLeA2uE9VGLmfPWVkgDcnd84_l8tyqpYMoBy9p4jq3zV2-hlrUfmy-GKd23ALn9zs9wsIjp_An-1BVNwJp1QeL6U7OAX0mcA4t8mdrLkmXXgCjyNU3MgBuIb1Qg9xrA4cutk4z4llbmLEFbeAaebaCUUujapCw7NPhmUjW_UEv-ekSZHjrzuVyqDFzhuTKnk7e-7cVwtNqq54NsNy0]--></g></svg>