<?xml version="1.0" encoding="us-ascii" standalone="no"?><svg xmlns="http://www.w3.org/2000/svg" xmlns:xlink="http://www.w3.org/1999/xlink" contentStyleType="text/css" height="1112px" preserveAspectRatio="none" style="width:648px;height:1112px;background:#282C34;" version="1.1" viewBox="0 0 648 1112" width="648px" zoomAndPan="magnify"><defs/><g><rect fill="#282C34" height="1112" style="stroke:none;stroke-width:1.0;" width="648" x="0" y="0"/><rect fill="#282C34" height="976.9453" style="stroke:#61AFEF;stroke-width:1.0;" width="10" x="62.5" y="75.9121"/><rect fill="#282C34" height="25" style="stroke:#61AFEF;stroke-width:1.0;" width="10" x="67.5" y="256.6582"/><rect fill="#282C34" height="619.3262" style="stroke:#61AFEF;stroke-width:1.0;" width="10" x="67.5" y="329.9492"/><rect fill="#282C34" height="548.0352" style="stroke:#61AFEF;stroke-width:1.0;" width="10" x="72.5" y="374.2402"/><rect fill="#282C34" height="351.5801" style="stroke:#61AFEF;stroke-width:1.0;" width="10" x="77.5" y="543.6953"/><rect fill="#282C34" height="62.252" style="stroke:#61AFEF;stroke-width:1.0;" width="10" x="82.5" y="799.0234"/><rect fill="#282C34" height="36.291" style="stroke:#61AFEF;stroke-width:1.0;" width="10" x="67.5" y="1016.5664"/><rect fill="#282C34" height="31.291" style="stroke:#61AFEF;stroke-width:1.0;" width="10" x="188.5" y="133.4941"/><rect fill="#282C34" height="31.291" style="stroke:#61AFEF;stroke-width:1.0;" width="10" x="260.5" y="410.5313"/><rect fill="#282C34" height="31.291" style="stroke:#61AFEF;stroke-width:1.0;" width="10" x="260.5" y="579.9863"/><rect fill="#282C34" height="31.291" style="stroke:#61AFEF;stroke-width:1.0;" width="10" x="320.5" y="473.1133"/><rect fill="#282C34" height="93.873" style="stroke:#61AFEF;stroke-width:1.0;" width="10" x="379.5" y="642.5684"/><rect fill="#282C34" height="31.291" style="stroke:#61AFEF;stroke-width:1.0;" width="10" x="533.5" y="673.8594"/><rect fill="#282C34" height="107.543" style="stroke:#61AFEF;stroke-width:1.0;" width="10" x="587.5" y="767.7324"/><rect fill="#282C34" height="887.3633" style="stroke:#ABB2BF;stroke-width:1.5;" width="632" x="10" y="90.9121"/><rect fill="#282C34" height="791.4902" style="stroke:#ABB2BF;stroke-width:1.5;" width="612" x="20" y="179.7852"/><rect fill="#282C34" height="758.1992" style="stroke:#ABB2BF;stroke-width:1.5;" width="592" x="30" y="206.0762"/><rect fill="#282C34" height="667.6172" style="stroke:none;stroke-width:1.0;" width="592" x="30" y="296.6582"/><line style="stroke:#61AFEF;stroke-width:0.5;stroke-dasharray:5.0,5.0;" x1="67" x2="67" y1="42.6211" y2="1070.8574"/><line style="stroke:#61AFEF;stroke-width:0.5;stroke-dasharray:5.0,5.0;" x1="193" x2="193" y1="42.6211" y2="1070.8574"/><line style="stroke:#61AFEF;stroke-width:0.5;stroke-dasharray:5.0,5.0;" x1="265" x2="265" y1="42.6211" y2="1070.8574"/><line style="stroke:#61AFEF;stroke-width:0.5;stroke-dasharray:5.0,5.0;" x1="325" x2="325" y1="42.6211" y2="1070.8574"/><line style="stroke:#61AFEF;stroke-width:0.5;stroke-dasharray:5.0,5.0;" x1="384" x2="384" y1="42.6211" y2="1070.8574"/><line style="stroke:#61AFEF;stroke-width:0.5;stroke-dasharray:5.0,5.0;" x1="538" x2="538" y1="42.6211" y2="1070.8574"/><line style="stroke:#61AFEF;stroke-width:0.5;stroke-dasharray:5.0,5.0;" x1="592" x2="592" y1="42.6211" y2="1070.8574"/><rect fill="#424856" height="32.6211" rx="2.5" ry="2.5" style="stroke:#61AFEF;stroke-width:0.5;" width="55" x="40" y="9"/><text fill="#ABB2BF" font-family="Segoe UI" font-size="14" lengthAdjust="spacing" textLength="41" x="47" y="31.1074">Match</text><rect fill="#424856" height="32.6211" rx="2.5" ry="2.5" style="stroke:#61AFEF;stroke-width:0.5;" width="55" x="40" y="1069.8574"/><text fill="#ABB2BF" font-family="Segoe UI" font-size="14" lengthAdjust="spacing" textLength="41" x="47" y="1091.9648">Match</text><rect fill="#424856" height="32.6211" style="stroke:#61AFEF;stroke-width:0.5;" width="63" x="164" y="5"/><rect fill="#424856" height="32.6211" style="stroke:#61AFEF;stroke-width:0.5;" width="63" x="160" y="9"/><text fill="#ABB2BF" font-family="Segoe UI" font-size="14" lengthAdjust="spacing" textLength="49" x="167" y="31.1074">Players</text><rect fill="#424856" height="32.6211" style="stroke:#61AFEF;stroke-width:0.5;" width="63" x="164" y="1069.8574"/><rect fill="#424856" height="32.6211" style="stroke:#61AFEF;stroke-width:0.5;" width="63" x="160" y="1073.8574"/><text fill="#ABB2BF" font-family="Segoe UI" font-size="14" lengthAdjust="spacing" textLength="49" x="167" y="1095.9648">Players</text><rect fill="#424856" height="32.6211" rx="2.5" ry="2.5" style="stroke:#61AFEF;stroke-width:0.5;" width="57" x="237" y="9"/><text fill="#ABB2BF" font-family="Segoe UI" font-size="14" lengthAdjust="spacing" textLength="43" x="244" y="31.1074">Player</text><rect fill="#424856" height="32.6211" rx="2.5" ry="2.5" style="stroke:#61AFEF;stroke-width:0.5;" width="57" x="237" y="1069.8574"/><text fill="#ABB2BF" font-family="Segoe UI" font-size="14" lengthAdjust="spacing" textLength="43" x="244" y="1091.9648">Player</text><rect fill="#424856" height="32.6211" rx="2.5" ry="2.5" style="stroke:#61AFEF;stroke-width:0.5;" width="43" x="304" y="9"/><text fill="#ABB2BF" font-family="Segoe UI" font-size="14" lengthAdjust="spacing" textLength="29" x="311" y="31.1074">Dice</text><rect fill="#424856" height="32.6211" rx="2.5" ry="2.5" style="stroke:#61AFEF;stroke-width:0.5;" width="43" x="304" y="1069.8574"/><text fill="#ABB2BF" font-family="Segoe UI" font-size="14" lengthAdjust="spacing" textLength="29" x="311" y="1091.9648">Dice</text><rect fill="#424856" height="32.6211" rx="2.5" ry="2.5" style="stroke:#61AFEF;stroke-width:0.5;" width="55" x="357" y="9"/><text fill="#ABB2BF" font-family="Segoe UI" font-size="14" lengthAdjust="spacing" textLength="41" x="364" y="31.1074">Board</text><rect fill="#424856" height="32.6211" rx="2.5" ry="2.5" style="stroke:#61AFEF;stroke-width:0.5;" width="55" x="357" y="1069.8574"/><text fill="#ABB2BF" font-family="Segoe UI" font-size="14" lengthAdjust="spacing" textLength="41" x="364" y="1091.9648">Board</text><rect fill="#424856" height="32.6211" style="stroke:#61AFEF;stroke-width:0.5;" width="45" x="518" y="5"/><rect fill="#424856" height="32.6211" style="stroke:#61AFEF;stroke-width:0.5;" width="45" x="514" y="9"/><text fill="#ABB2BF" font-family="Segoe UI" font-size="14" lengthAdjust="spacing" textLength="31" x="521" y="31.1074">Cells</text><rect fill="#424856" height="32.6211" style="stroke:#61AFEF;stroke-width:0.5;" width="45" x="518" y="1069.8574"/><rect fill="#424856" height="32.6211" style="stroke:#61AFEF;stroke-width:0.5;" width="45" x="514" y="1073.8574"/><text fill="#ABB2BF" font-family="Segoe UI" font-size="14" lengthAdjust="spacing" textLength="31" x="521" y="1095.9648">Cells</text><rect fill="#424856" height="32.6211" rx="2.5" ry="2.5" style="stroke:#61AFEF;stroke-width:0.5;" width="39" x="573" y="9"/><text fill="#ABB2BF" font-family="Segoe UI" font-size="14" lengthAdjust="spacing" textLength="25" x="580" y="31.1074">Cell</text><rect fill="#424856" height="32.6211" rx="2.5" ry="2.5" style="stroke:#61AFEF;stroke-width:0.5;" width="39" x="573" y="1069.8574"/><text fill="#ABB2BF" font-family="Segoe UI" font-size="14" lengthAdjust="spacing" textLength="25" x="580" y="1091.9648">Cell</text><rect fill="#282C34" height="976.9453" style="stroke:#61AFEF;stroke-width:1.0;" width="10" x="62.5" y="75.9121"/><rect fill="#282C34" height="25" style="stroke:#61AFEF;stroke-width:1.0;" width="10" x="67.5" y="256.6582"/><rect fill="#282C34" height="619.3262" style="stroke:#61AFEF;stroke-width:1.0;" width="10" x="67.5" y="329.9492"/><rect fill="#282C34" height="548.0352" style="stroke:#61AFEF;stroke-width:1.0;" width="10" x="72.5" y="374.2402"/><rect fill="#282C34" height="351.5801" style="stroke:#61AFEF;stroke-width:1.0;" width="10" x="77.5" y="543.6953"/><rect fill="#282C34" height="62.252" style="stroke:#61AFEF;stroke-width:1.0;" width="10" x="82.5" y="799.0234"/><rect fill="#282C34" height="36.291" style="stroke:#61AFEF;stroke-width:1.0;" width="10" x="67.5" y="1016.5664"/><rect fill="#282C34" height="31.291" style="stroke:#61AFEF;stroke-width:1.0;" width="10" x="188.5" y="133.4941"/><rect fill="#282C34" height="31.291" style="stroke:#61AFEF;stroke-width:1.0;" width="10" x="260.5" y="410.5313"/><rect fill="#282C34" height="31.291" style="stroke:#61AFEF;stroke-width:1.0;" width="10" x="260.5" y="579.9863"/><rect fill="#282C34" height="31.291" style="stroke:#61AFEF;stroke-width:1.0;" width="10" x="320.5" y="473.1133"/><rect fill="#282C34" height="93.873" style="stroke:#61AFEF;stroke-width:1.0;" width="10" x="379.5" y="642.5684"/><rect fill="#282C34" height="31.291" style="stroke:#61AFEF;stroke-width:1.0;" width="10" x="533.5" y="673.8594"/><rect fill="#282C34" height="107.543" style="stroke:#61AFEF;stroke-width:1.0;" width="10" x="587.5" y="767.7324"/><ellipse cx="7.5" cy="75.1621" fill="none" rx="4" ry="4" style="stroke:#61AFEF;stroke-width:1.5;"/><polygon fill="#61AFEF" points="50.5,71.9121,60.5,75.9121,50.5,79.9121,54.5,75.9121" style="stroke:#61AFEF;stroke-width:1.0;"/><line style="stroke:#61AFEF;stroke-width:1.0;" x1="12" x2="56.5" y1="75.9121" y2="75.9121"/><text fill="#ABB2BF" font-family="Segoe UI" font-size="13" lengthAdjust="spacing" textLength="31" x="15" y="70.6494">run()</text><path d="M10,90.9121 L83,90.9121 L83,100.2031 L73,110.2031 L10,110.2031 L10,90.9121 " fill="#424856" style="stroke:#ABB2BF;stroke-width:1.5;"/><rect fill="none" height="887.3633" style="stroke:#ABB2BF;stroke-width:1.5;" width="632" x="10" y="90.9121"/><text fill="#ABB2BF" font-family="Segoe UI" font-size="13" font-weight="bold" lengthAdjust="spacing" textLength="28" x="25" y="105.9404">loop</text><text fill="#ABB2BF" font-family="Segoe UI" font-size="11" font-weight="bold" lengthAdjust="spacing" textLength="106" x="98" y="104.7822">[La partita continua]</text><polygon fill="#61AFEF" points="176.5,129.4941,186.5,133.4941,176.5,137.4941,180.5,133.4941" style="stroke:#61AFEF;stroke-width:1.0;"/><line style="stroke:#61AFEF;stroke-width:1.0;" x1="72.5" x2="182.5" y1="133.4941" y2="133.4941"/><text fill="#ABB2BF" font-family="Segoe UI" font-size="13" lengthAdjust="spacing" textLength="97" x="79.5" y="128.2314">getNextPlayer()</text><polygon fill="#61AFEF" points="83.5,160.7852,73.5,164.7852,83.5,168.7852,79.5,164.7852" style="stroke:#61AFEF;stroke-width:1.0;"/><line style="stroke:#61AFEF;stroke-width:1.0;stroke-dasharray:2.0,2.0;" x1="77.5" x2="192.5" y1="164.7852" y2="164.7852"/><text fill="#ABB2BF" font-family="Segoe UI" font-size="13" lengthAdjust="spacing" textLength="80" x="89.5" y="159.5225">player:Player</text><path d="M20,179.7852 L93,179.7852 L93,189.0762 L83,199.0762 L20,199.0762 L20,179.7852 " fill="#424856" style="stroke:#ABB2BF;stroke-width:1.5;"/><rect fill="none" height="791.4902" style="stroke:#ABB2BF;stroke-width:1.5;" width="612" x="20" y="179.7852"/><text fill="#ABB2BF" font-family="Segoe UI" font-size="13" font-weight="bold" lengthAdjust="spacing" textLength="28" x="35" y="194.8135">loop</text><text fill="#ABB2BF" font-family="Segoe UI" font-size="11" font-weight="bold" lengthAdjust="spacing" textLength="172" x="108" y="193.6553">[&#200; il turno del giocatore corrente]</text><path d="M30,206.0762 L91,206.0762 L91,215.3672 L81,225.3672 L30,225.3672 L30,206.0762 " fill="#424856" style="stroke:#ABB2BF;stroke-width:1.5;"/><rect fill="none" height="758.1992" style="stroke:#ABB2BF;stroke-width:1.5;" width="592" x="30" y="206.0762"/><text fill="#ABB2BF" font-family="Segoe UI" font-size="13" font-weight="bold" lengthAdjust="spacing" textLength="16" x="45" y="221.1045">alt</text><text fill="#ABB2BF" font-family="Segoe UI" font-size="11" font-weight="bold" lengthAdjust="spacing" textLength="122" x="106" y="219.9463">[Il giocatore &#232; bloccato]</text><line style="stroke:#61AFEF;stroke-width:1.0;" x1="72.5" x2="119.5" y1="243.6582" y2="243.6582"/><line style="stroke:#61AFEF;stroke-width:1.0;" x1="119.5" x2="119.5" y1="243.6582" y2="256.6582"/><line style="stroke:#61AFEF;stroke-width:1.0;" x1="78.5" x2="119.5" y1="256.6582" y2="256.6582"/><polygon fill="#61AFEF" points="88.5,252.6582,78.5,256.6582,88.5,260.6582,84.5,256.6582" style="stroke:#61AFEF;stroke-width:1.0;"/><text fill="#ABB2BF" font-family="Segoe UI" font-size="13" lengthAdjust="spacing" textLength="36" x="84.5" y="238.3955">turn()</text><line style="stroke:#61AFEF;stroke-width:1.0;stroke-dasharray:2.0,2.0;" x1="77.5" x2="119.5" y1="280.6582" y2="280.6582"/><line style="stroke:#61AFEF;stroke-width:1.0;stroke-dasharray:2.0,2.0;" x1="119.5" x2="119.5" y1="280.6582" y2="293.6582"/><line style="stroke:#61AFEF;stroke-width:1.0;stroke-dasharray:2.0,2.0;" x1="72.5" x2="119.5" y1="293.6582" y2="293.6582"/><polygon fill="#61AFEF" points="82.5,289.6582,72.5,293.6582,82.5,297.6582,78.5,293.6582" style="stroke:#61AFEF;stroke-width:1.0;"/><line style="stroke:#ABB2BF;stroke-width:1.0;stroke-dasharray:2.0,2.0;" x1="30" x2="622" y1="297.6582" y2="297.6582"/><line style="stroke:#61AFEF;stroke-width:1.0;" x1="72.5" x2="119.5" y1="316.9492" y2="316.9492"/><line style="stroke:#61AFEF;stroke-width:1.0;" x1="119.5" x2="119.5" y1="316.9492" y2="329.9492"/><line style="stroke:#61AFEF;stroke-width:1.0;" x1="78.5" x2="119.5" y1="329.9492" y2="329.9492"/><polygon fill="#61AFEF" points="88.5,325.9492,78.5,329.9492,88.5,333.9492,84.5,329.9492" style="stroke:#61AFEF;stroke-width:1.0;"/><text fill="#ABB2BF" font-family="Segoe UI" font-size="13" lengthAdjust="spacing" textLength="36" x="84.5" y="311.6865">turn()</text><line style="stroke:#61AFEF;stroke-width:1.0;" x1="77.5" x2="124.5" y1="361.2402" y2="361.2402"/><line style="stroke:#61AFEF;stroke-width:1.0;" x1="124.5" x2="124.5" y1="361.2402" y2="374.2402"/><line style="stroke:#61AFEF;stroke-width:1.0;" x1="83.5" x2="124.5" y1="374.2402" y2="374.2402"/><polygon fill="#61AFEF" points="93.5,370.2402,83.5,374.2402,93.5,378.2402,89.5,374.2402" style="stroke:#61AFEF;stroke-width:1.0;"/><text fill="#ABB2BF" font-family="Segoe UI" font-size="13" lengthAdjust="spacing" textLength="58" x="89.5" y="355.9775">rollDice()</text><polygon fill="#61AFEF" points="248.5,406.5313,258.5,410.5313,248.5,414.5313,252.5,410.5313" style="stroke:#61AFEF;stroke-width:1.0;"/><line style="stroke:#61AFEF;stroke-width:1.0;" x1="82.5" x2="254.5" y1="410.5313" y2="410.5313"/><text fill="#ABB2BF" font-family="Segoe UI" font-size="13" lengthAdjust="spacing" textLength="81" x="89.5" y="405.2686">getPosition()</text><polygon fill="#61AFEF" points="93.5,437.8223,83.5,441.8223,93.5,445.8223,89.5,441.8223" style="stroke:#61AFEF;stroke-width:1.0;"/><line style="stroke:#61AFEF;stroke-width:1.0;stroke-dasharray:2.0,2.0;" x1="87.5" x2="264.5" y1="441.8223" y2="441.8223"/><text fill="#ABB2BF" font-family="Segoe UI" font-size="13" lengthAdjust="spacing" textLength="110" x="99.5" y="436.5596">playerPosition:int</text><polygon fill="#61AFEF" points="308.5,469.1133,318.5,473.1133,308.5,477.1133,312.5,473.1133" style="stroke:#61AFEF;stroke-width:1.0;"/><line style="stroke:#61AFEF;stroke-width:1.0;" x1="82.5" x2="314.5" y1="473.1133" y2="473.1133"/><text fill="#ABB2BF" font-family="Segoe UI" font-size="13" lengthAdjust="spacing" textLength="149" x="89.5" y="467.8506">roll(isInLastNCells:bool)</text><polygon fill="#61AFEF" points="93.5,500.4043,83.5,504.4043,93.5,508.4043,89.5,504.4043" style="stroke:#61AFEF;stroke-width:1.0;"/><line style="stroke:#61AFEF;stroke-width:1.0;stroke-dasharray:2.0,2.0;" x1="87.5" x2="324.5" y1="504.4043" y2="504.4043"/><text fill="#ABB2BF" font-family="Segoe UI" font-size="13" lengthAdjust="spacing" textLength="42" x="99.5" y="499.1416">roll:int</text><line style="stroke:#61AFEF;stroke-width:1.0;" x1="82.5" x2="129.5" y1="530.6953" y2="530.6953"/><line style="stroke:#61AFEF;stroke-width:1.0;" x1="129.5" x2="129.5" y1="530.6953" y2="543.6953"/><line style="stroke:#61AFEF;stroke-width:1.0;" x1="88.5" x2="129.5" y1="543.6953" y2="543.6953"/><polygon fill="#61AFEF" points="98.5,539.6953,88.5,543.6953,98.5,547.6953,94.5,543.6953" style="stroke:#61AFEF;stroke-width:1.0;"/><text fill="#ABB2BF" font-family="Segoe UI" font-size="13" lengthAdjust="spacing" textLength="44" x="94.5" y="525.4326">move()</text><polygon fill="#61AFEF" points="248.5,575.9863,258.5,579.9863,248.5,583.9863,252.5,579.9863" style="stroke:#61AFEF;stroke-width:1.0;"/><line style="stroke:#61AFEF;stroke-width:1.0;" x1="87.5" x2="254.5" y1="579.9863" y2="579.9863"/><text fill="#ABB2BF" font-family="Segoe UI" font-size="13" lengthAdjust="spacing" textLength="86" x="94.5" y="574.7236">move(roll:int)</text><polygon fill="#61AFEF" points="98.5,607.2773,88.5,611.2773,98.5,615.2773,94.5,611.2773" style="stroke:#61AFEF;stroke-width:1.0;"/><line style="stroke:#61AFEF;stroke-width:1.0;stroke-dasharray:2.0,2.0;" x1="92.5" x2="264.5" y1="611.2773" y2="611.2773"/><text fill="#ABB2BF" font-family="Segoe UI" font-size="13" lengthAdjust="spacing" textLength="72" x="104.5" y="606.0146">position:int</text><polygon fill="#61AFEF" points="367.5,638.5684,377.5,642.5684,367.5,646.5684,371.5,642.5684" style="stroke:#61AFEF;stroke-width:1.0;"/><line style="stroke:#61AFEF;stroke-width:1.0;" x1="87.5" x2="373.5" y1="642.5684" y2="642.5684"/><text fill="#ABB2BF" font-family="Segoe UI" font-size="13" lengthAdjust="spacing" textLength="125" x="94.5" y="637.3057">getCell(position:int)</text><polygon fill="#61AFEF" points="521.5,669.8594,531.5,673.8594,521.5,677.8594,525.5,673.8594" style="stroke:#61AFEF;stroke-width:1.0;"/><line style="stroke:#61AFEF;stroke-width:1.0;" x1="389.5" x2="527.5" y1="673.8594" y2="673.8594"/><text fill="#ABB2BF" font-family="Segoe UI" font-size="13" lengthAdjust="spacing" textLength="125" x="396.5" y="668.5967">getCell(position:int)</text><polygon fill="#61AFEF" points="400.5,701.1504,390.5,705.1504,400.5,709.1504,396.5,705.1504" style="stroke:#61AFEF;stroke-width:1.0;"/><line style="stroke:#61AFEF;stroke-width:1.0;stroke-dasharray:2.0,2.0;" x1="394.5" x2="537.5" y1="705.1504" y2="705.1504"/><text fill="#ABB2BF" font-family="Segoe UI" font-size="13" lengthAdjust="spacing" textLength="48" x="406.5" y="699.8877">cell:Cell</text><polygon fill="#61AFEF" points="98.5,732.4414,88.5,736.4414,98.5,740.4414,94.5,736.4414" style="stroke:#61AFEF;stroke-width:1.0;"/><line style="stroke:#61AFEF;stroke-width:1.0;stroke-dasharray:2.0,2.0;" x1="92.5" x2="383.5" y1="736.4414" y2="736.4414"/><text fill="#ABB2BF" font-family="Segoe UI" font-size="13" lengthAdjust="spacing" textLength="48" x="104.5" y="731.1787">cell:Cell</text><polygon fill="#61AFEF" points="575.5,763.7324,585.5,767.7324,575.5,771.7324,579.5,767.7324" style="stroke:#61AFEF;stroke-width:1.0;"/><line style="stroke:#61AFEF;stroke-width:1.0;" x1="87.5" x2="581.5" y1="767.7324" y2="767.7324"/><text fill="#ABB2BF" font-family="Segoe UI" font-size="13" lengthAdjust="spacing" textLength="48" x="94.5" y="762.4697">action()</text><polygon fill="#61AFEF" points="103.5,795.0234,93.5,799.0234,103.5,803.0234,99.5,799.0234" style="stroke:#61AFEF;stroke-width:1.0;"/><line style="stroke:#61AFEF;stroke-width:1.0;" x1="97.5" x2="586.5" y1="799.0234" y2="799.0234"/><text fill="#ABB2BF" font-family="Segoe UI" font-size="13" lengthAdjust="spacing" textLength="216" x="109.5" y="793.7607">sendMessage(colleague:Colleague)</text><rect fill="none" height="43.252" style="stroke:#ABB2BF;stroke-width:1.5;" width="137" x="37" y="807.0234"/><path d="M37,807.0234 L99,807.0234 L99,816.0234 L89,826.0234 L37,826.0234 L37,807.0234 " fill="#424856" style="stroke:#ABB2BF;stroke-width:2.0;"/><text fill="#ABB2BF" font-family="Segoe UI" font-size="13" font-weight="bold" lengthAdjust="spacing" textLength="17" x="50" y="823.0518">ref</text><text fill="#ABB2BF" font-family="Segoe UI" font-size="12" lengthAdjust="spacing" textLength="129" x="41" y="842.9727">Reaggisce al messaggio</text><polygon fill="#61AFEF" points="575.5,857.2754,585.5,861.2754,575.5,865.2754,579.5,861.2754" style="stroke:#61AFEF;stroke-width:1.0;"/><line style="stroke:#61AFEF;stroke-width:1.0;stroke-dasharray:2.0,2.0;" x1="87.5" x2="581.5" y1="861.2754" y2="861.2754"/><polygon fill="#61AFEF" points="98.5,871.2754,88.5,875.2754,98.5,879.2754,94.5,875.2754" style="stroke:#61AFEF;stroke-width:1.0;"/><line style="stroke:#61AFEF;stroke-width:1.0;stroke-dasharray:2.0,2.0;" x1="92.5" x2="591.5" y1="875.2754" y2="875.2754"/><line style="stroke:#61AFEF;stroke-width:1.0;stroke-dasharray:2.0,2.0;" x1="87.5" x2="129.5" y1="894.2754" y2="894.2754"/><line style="stroke:#61AFEF;stroke-width:1.0;stroke-dasharray:2.0,2.0;" x1="129.5" x2="129.5" y1="894.2754" y2="907.2754"/><line style="stroke:#61AFEF;stroke-width:1.0;stroke-dasharray:2.0,2.0;" x1="82.5" x2="129.5" y1="907.2754" y2="907.2754"/><polygon fill="#61AFEF" points="92.5,903.2754,82.5,907.2754,92.5,911.2754,88.5,907.2754" style="stroke:#61AFEF;stroke-width:1.0;"/><line style="stroke:#61AFEF;stroke-width:1.0;stroke-dasharray:2.0,2.0;" x1="82.5" x2="124.5" y1="921.2754" y2="921.2754"/><line style="stroke:#61AFEF;stroke-width:1.0;stroke-dasharray:2.0,2.0;" x1="124.5" x2="124.5" y1="921.2754" y2="934.2754"/><line style="stroke:#61AFEF;stroke-width:1.0;stroke-dasharray:2.0,2.0;" x1="77.5" x2="124.5" y1="934.2754" y2="934.2754"/><polygon fill="#61AFEF" points="87.5,930.2754,77.5,934.2754,87.5,938.2754,83.5,934.2754" style="stroke:#61AFEF;stroke-width:1.0;"/><line style="stroke:#61AFEF;stroke-width:1.0;stroke-dasharray:2.0,2.0;" x1="77.5" x2="119.5" y1="948.2754" y2="948.2754"/><line style="stroke:#61AFEF;stroke-width:1.0;stroke-dasharray:2.0,2.0;" x1="119.5" x2="119.5" y1="948.2754" y2="961.2754"/><line style="stroke:#61AFEF;stroke-width:1.0;stroke-dasharray:2.0,2.0;" x1="72.5" x2="119.5" y1="961.2754" y2="961.2754"/><polygon fill="#61AFEF" points="82.5,957.2754,72.5,961.2754,82.5,965.2754,78.5,961.2754" style="stroke:#61AFEF;stroke-width:1.0;"/><line style="stroke:#61AFEF;stroke-width:1.0;" x1="72.5" x2="119.5" y1="1003.5664" y2="1003.5664"/><line style="stroke:#61AFEF;stroke-width:1.0;" x1="119.5" x2="119.5" y1="1003.5664" y2="1016.5664"/><line style="stroke:#61AFEF;stroke-width:1.0;" x1="78.5" x2="119.5" y1="1016.5664" y2="1016.5664"/><polygon fill="#61AFEF" points="88.5,1012.5664,78.5,1016.5664,88.5,1020.5664,84.5,1016.5664" style="stroke:#61AFEF;stroke-width:1.0;"/><text fill="#ABB2BF" font-family="Segoe UI" font-size="13" lengthAdjust="spacing" textLength="51" x="84.5" y="998.3037">results()</text><polygon fill="#61AFEF" points="11,1048.8574,1,1052.8574,11,1056.8574,7,1052.8574" style="stroke:#61AFEF;stroke-width:1.0;"/><line style="stroke:#61AFEF;stroke-width:1.0;" x1="5" x2="66.5" y1="1052.8574" y2="1052.8574"/><text fill="#ABB2BF" font-family="Segoe UI" font-size="13" lengthAdjust="spacing" textLength="41" x="17" y="1047.5947">results</text><!--SRC=[hLJDRjGm4BxxAORReYe9lKQ80-LIgQqghZtDEaFMMiUExF42Ry2Zy1vzCVoJX0sai49OYhBv_CqttypO-qePgKD7S60UVTiq3Z_NlU93s0TFJbh3PBYMTcX6PAUEbVHuRAoXgaDth4QDXiEWApxGGCtfkdvJNpVvenuZBiI8ZfLKO-J1FR8y26cr9idA6W-F6h-IyojMmLRG1oLf1RotwBgLqWrflTP9Y11FjdfN4iFL5RJWWjcz5jhQ4UuGCfyHKg7A11GGLs77iCbT2Uo97-WB5onA9AOZ3ix0cB5sCfusilxpDr0Q4iD2HnfwPIMoTHJJEHVxIfcR5cg6stF6ytVOQolJrq9QUJihAMMO3Csh65iWqfx-HMQBvcBJqpnUefOkB3rxj5wb2MqQd3etSrfbU5iq9VoPVgVyhRb3pmzvwktUMhqfdyWlYvuLDTZJHGLbtgowNT5VQybdT-bFgc1t7hHMBUGObIkzD6ho8YEhpTVWuit5PTefwL1kp2zlhtleoNJtv3tsjCit4_j0xStywrU7do3sqaq2BNoCf5xvE6RKC6IPU1l-TAZ_9nIjY_cTdis3Jpvezh4HJs-hnVU4YevIdqx8DFtD_GRy0000]--></g></svg>