<?xml version="1.0" encoding="us-ascii" standalone="no"?><svg xmlns="http://www.w3.org/2000/svg" xmlns:xlink="http://www.w3.org/1999/xlink" contentStyleType="text/css" height="819px" preserveAspectRatio="none" style="width:1472px;height:819px;background:#282C34;" version="1.1" viewBox="0 0 1472 819" width="1472px" zoomAndPan="magnify"><defs/><g><rect fill="#282C34" height="819" style="stroke:none;stroke-width:1.0;" width="1472" x="0" y="0"/><!--class Mediator--><g id="elem_Mediator"><rect codeLine="5" fill="#424856" height="58.6211" id="Mediator" rx="2.5" ry="2.5" style="stroke:#ABB2BF;stroke-width:0.5;" width="304" x="488.09" y="152"/><ellipse cx="607.84" cy="168" fill="#B4A7E5" rx="11" ry="11" style="stroke:#181818;stroke-width:1.0;"/><path d="M608.7931,164.6406 L608.7931,171.2969 L610.5119,171.2969 Q611.1213,171.2969 611.3869,171.5313 Q611.6525,171.7656 611.6525,172.1563 Q611.6525,172.5313 611.3869,172.7656 Q611.1213,173 610.5119,173 L605.3713,173 Q604.7619,173 604.4963,172.7656 Q604.2306,172.5313 604.2306,172.1406 Q604.2306,171.7656 604.4963,171.5313 Q604.7619,171.2969 605.3713,171.2969 L607.09,171.2969 L607.09,164.6406 L605.3713,164.6406 Q604.7619,164.6406 604.4963,164.4063 Q604.2306,164.1719 604.2306,163.7813 Q604.2306,163.4063 604.4963,163.1719 Q604.7619,162.9375 605.3713,162.9375 L610.5119,162.9375 Q611.1213,162.9375 611.3869,163.1719 Q611.6525,163.4063 611.6525,163.7813 Q611.6525,164.1719 611.3869,164.4063 Q611.1213,164.6406 610.5119,164.6406 L608.7931,164.6406 Z " fill="#ABB2BF"/><text fill="#ABB2BF" font-family="Segoe UI" font-size="14" font-style="italic" lengthAdjust="spacing" textLength="56" x="628.34" y="173.7969">Mediator</text><line style="stroke:#ABB2BF;stroke-width:0.5;" x1="489.09" x2="791.09" y1="184" y2="184"/><ellipse cx="499.09" cy="198.8105" fill="#84BE84" rx="3" ry="3" style="stroke:#038048;stroke-width:1.0;"/><text fill="#ABB2BF" font-family="Segoe UI" font-size="14" font-style="italic" lengthAdjust="spacing" textLength="278" x="508.09" y="203.1074">sendMessage(colleague:Colleague):(boolean)</text></g><!--class Colleague--><g id="elem_Colleague"><rect codeLine="8" fill="#424856" height="85.2422" id="Colleague" rx="2.5" ry="2.5" style="stroke:#ABB2BF;stroke-width:0.5;" width="231" x="524.59" y="7"/><ellipse cx="604.34" cy="23" fill="#A9DCDF" rx="11" ry="11" style="stroke:#181818;stroke-width:1.0;"/><path d="M606.5275,24.7656 L602.3869,24.7656 L601.965,25.7969 L602.3869,25.7969 Q602.9963,25.7969 603.2619,26.0313 Q603.5275,26.2656 603.5275,26.6563 Q603.5275,27.0313 603.2619,27.2656 Q602.9963,27.5 602.3869,27.5 L600.09,27.5 Q599.4806,27.5 599.2306,27.2656 Q598.965,27.0313 598.965,26.6406 Q598.965,26.2656 599.2463,26.0313 Q599.5119,25.7813 600.1369,25.7969 L602.8088,19.1406 L601.6994,19.1406 Q601.09,19.1406 600.8244,18.9063 Q600.5588,18.6719 600.5588,18.2813 Q600.5588,17.9063 600.8244,17.6719 Q601.09,17.4375 601.6994,17.4375 L605.3713,17.4375 L608.7619,25.7969 Q609.3556,25.7969 609.5431,25.9375 Q609.9338,26.2031 609.9338,26.6563 Q609.9338,27.0313 609.6681,27.2656 Q609.4181,27.5 608.8088,27.5 L606.5119,27.5 Q605.9025,27.5 605.6369,27.2656 Q605.3713,27.0313 605.3713,26.6406 Q605.3713,26.2656 605.6369,26.0313 Q605.9025,25.7969 606.5119,25.7969 L606.9338,25.7969 L606.5275,24.7656 Z M605.8088,23.0625 L604.4494,19.6875 L603.0744,23.0625 L605.8088,23.0625 Z " fill="#ABB2BF"/><text fill="#ABB2BF" font-family="Segoe UI" font-size="14" font-style="italic" lengthAdjust="spacing" textLength="63" x="624.84" y="28.7969">Colleague</text><line style="stroke:#ABB2BF;stroke-width:0.5;" x1="525.59" x2="754.59" y1="39" y2="39"/><polygon fill="none" points="535.59,48.8105,539.59,52.8105,535.59,56.8105,531.59,52.8105" style="stroke:#B38D22;stroke-width:1.0;"/><text fill="#ABB2BF" font-family="Segoe UI" font-size="14" lengthAdjust="spacing" textLength="128" x="544.59" y="58.1074">mediator:Mediator</text><line style="stroke:#ABB2BF;stroke-width:0.5;" x1="525.59" x2="754.59" y1="65.6211" y2="65.6211"/><polygon fill="#FFFF44" points="535.59,75.4316,539.59,79.4316,535.59,83.4316,531.59,79.4316" style="stroke:#B38D22;stroke-width:1.0;"/><text fill="#ABB2BF" font-family="Segoe UI" font-size="14" lengthAdjust="spacing" textLength="205" x="544.59" y="84.7285">Colleague(mediator:Mediator)</text></g><!--class Match--><g id="elem_Match"><rect codeLine="13" fill="#424856" height="141.1055" id="Match" rx="2.5" ry="2.5" style="stroke:#ABB2BF;stroke-width:0.5;" width="385" x="447.59" y="279.5"/><ellipse cx="615.34" cy="295.5" fill="#ADD1B2" rx="11" ry="11" style="stroke:#181818;stroke-width:1.0;"/><path d="M618.1056,291.375 Q618.2619,291.1563 618.4494,291.0469 Q618.6369,290.9375 618.8556,290.9375 Q619.2306,290.9375 619.465,291.2031 Q619.6994,291.4531 619.6994,292.0625 L619.6994,293.5156 Q619.6994,294.125 619.465,294.3906 Q619.2306,294.6563 618.8556,294.6563 Q618.5119,294.6563 618.3088,294.4531 Q618.1056,294.2656 617.9963,293.75 Q617.9494,293.3906 617.7619,293.2031 Q617.4338,292.8281 616.8244,292.6094 Q616.215,292.3906 615.59,292.3906 Q614.8244,292.3906 614.1838,292.7188 Q613.5588,293.0469 613.0588,293.7969 Q612.5744,294.5469 612.5744,295.5781 L612.5744,296.6719 Q612.5744,297.9063 613.465,298.7344 Q614.3556,299.5469 615.9494,299.5469 Q616.8869,299.5469 617.5431,299.2969 Q617.9338,299.1406 618.3556,298.7031 Q618.6213,298.4375 618.7619,298.3594 Q618.9181,298.2813 619.1213,298.2813 Q619.4494,298.2813 619.6994,298.5469 Q619.965,298.7969 619.965,299.1406 Q619.965,299.4844 619.6213,299.8906 Q619.1213,300.4688 618.3244,300.7969 Q617.2463,301.25 615.9494,301.25 Q614.4338,301.25 613.2306,300.625 Q612.2463,300.125 611.5588,299.0625 Q610.8713,297.9844 610.8713,296.7031 L610.8713,295.5469 Q610.8713,294.2188 611.4806,293.0781 Q612.1056,291.9219 613.1994,291.3125 Q614.2931,290.6875 615.5275,290.6875 Q616.2619,290.6875 616.9025,290.8594 Q617.5588,291.0156 618.1056,291.375 Z " fill="#ABB2BF"/><text fill="#ABB2BF" font-family="Segoe UI" font-size="14" lengthAdjust="spacing" textLength="41" x="635.84" y="301.2969">Match</text><line style="stroke:#ABB2BF;stroke-width:0.5;" x1="448.59" x2="831.59" y1="311.5" y2="311.5"/><text fill="#ABB2BF" font-family="Segoe UI" font-size="14" lengthAdjust="spacing" textLength="12" x="453.59" y="330.6074">...</text><line style="stroke:#ABB2BF;stroke-width:0.5;" x1="448.59" x2="831.59" y1="338.1211" y2="338.1211"/><ellipse cx="458.59" cy="352.9316" fill="#84BE84" rx="3" ry="3" style="stroke:#038048;stroke-width:1.0;"/><text fill="#ABB2BF" font-family="Segoe UI" font-size="14" lengthAdjust="spacing" textLength="294" x="467.59" y="357.2285">sendMessage(colleague:Colleague):boolean</text><rect fill="#F24D5C" height="6" style="stroke:#C82930;stroke-width:1.0;" width="6" x="455.59" y="368.5527"/><text fill="#ABB2BF" font-family="Segoe UI" font-size="14" lengthAdjust="spacing" textLength="288" x="467.59" y="375.8496">reactToCell(action:Action,data:int):boolean</text><rect fill="#F24D5C" height="6" style="stroke:#C82930;stroke-width:1.0;" width="6" x="455.59" y="387.1738"/><text fill="#ABB2BF" font-family="Segoe UI" font-size="14" lengthAdjust="spacing" textLength="359" x="467.59" y="394.4707">reactToPlayer(message:PlayerMessageType):boolean</text><text fill="#ABB2BF" font-family="Segoe UI" font-size="14" lengthAdjust="spacing" textLength="12" x="467.59" y="413.0918">...</text></g><!--class Player--><g id="elem_Player"><rect codeLine="20" fill="#424856" height="159.7266" id="Player" rx="2.5" ry="2.5" style="stroke:#ABB2BF;stroke-width:0.5;" width="309" x="107.59" y="489"/><ellipse cx="236.34" cy="505" fill="#ADD1B2" rx="11" ry="11" style="stroke:#181818;stroke-width:1.0;"/><path d="M239.1056,500.875 Q239.2619,500.6563 239.4494,500.5469 Q239.6369,500.4375 239.8556,500.4375 Q240.2306,500.4375 240.465,500.7031 Q240.6994,500.9531 240.6994,501.5625 L240.6994,503.0156 Q240.6994,503.625 240.465,503.8906 Q240.2306,504.1563 239.8556,504.1563 Q239.5119,504.1563 239.3088,503.9531 Q239.1056,503.7656 238.9963,503.25 Q238.9494,502.8906 238.7619,502.7031 Q238.4338,502.3281 237.8244,502.1094 Q237.215,501.8906 236.59,501.8906 Q235.8244,501.8906 235.1838,502.2188 Q234.5588,502.5469 234.0588,503.2969 Q233.5744,504.0469 233.5744,505.0781 L233.5744,506.1719 Q233.5744,507.4063 234.465,508.2344 Q235.3556,509.0469 236.9494,509.0469 Q237.8869,509.0469 238.5431,508.7969 Q238.9338,508.6406 239.3556,508.2031 Q239.6213,507.9375 239.7619,507.8594 Q239.9181,507.7813 240.1213,507.7813 Q240.4494,507.7813 240.6994,508.0469 Q240.965,508.2969 240.965,508.6406 Q240.965,508.9844 240.6213,509.3906 Q240.1213,509.9688 239.3244,510.2969 Q238.2463,510.75 236.9494,510.75 Q235.4338,510.75 234.2306,510.125 Q233.2463,509.625 232.5588,508.5625 Q231.8713,507.4844 231.8713,506.2031 L231.8713,505.0469 Q231.8713,503.7188 232.4806,502.5781 Q233.1056,501.4219 234.1994,500.8125 Q235.2931,500.1875 236.5275,500.1875 Q237.2619,500.1875 237.9025,500.3594 Q238.5588,500.5156 239.1056,500.875 Z " fill="#ABB2BF"/><text fill="#ABB2BF" font-family="Segoe UI" font-size="14" lengthAdjust="spacing" textLength="43" x="256.84" y="510.7969">Player</text><line style="stroke:#ABB2BF;stroke-width:0.5;" x1="108.59" x2="415.59" y1="521" y2="521"/><rect fill="none" height="6" style="stroke:#C82930;stroke-width:1.0;" width="6" x="115.59" y="532.8105"/><text fill="#ABB2BF" font-family="Segoe UI" font-size="14" lengthAdjust="spacing" textLength="196" x="127.59" y="540.1074">message:PlayerMessageType</text><text fill="#ABB2BF" font-family="Segoe UI" font-size="14" lengthAdjust="spacing" textLength="12" x="127.59" y="558.7285">...</text><line style="stroke:#ABB2BF;stroke-width:0.5;" x1="108.59" x2="415.59" y1="566.2422" y2="566.2422"/><ellipse cx="118.59" cy="581.0527" fill="#84BE84" rx="3" ry="3" style="stroke:#038048;stroke-width:1.0;"/><text fill="#ABB2BF" font-family="Segoe UI" font-size="14" lengthAdjust="spacing" textLength="101" x="127.59" y="585.3496">block(turns:int)</text><ellipse cx="118.59" cy="599.6738" fill="#84BE84" rx="3" ry="3" style="stroke:#038048;stroke-width:1.0;"/><text fill="#ABB2BF" font-family="Segoe UI" font-size="14" lengthAdjust="spacing" textLength="228" x="127.59" y="603.9707">getMessage():PlayerMessageType</text><rect fill="#F24D5C" height="6" style="stroke:#C82930;stroke-width:1.0;" width="6" x="115.59" y="615.2949"/><text fill="#ABB2BF" font-family="Segoe UI" font-size="14" lengthAdjust="spacing" textLength="283" x="127.59" y="622.5918">setMessage(message:PlayerMessageType)</text><text fill="#ABB2BF" font-family="Segoe UI" font-size="14" lengthAdjust="spacing" textLength="12" x="127.59" y="641.2129">...</text></g><!--class Cell--><g id="elem_Cell"><rect codeLine="28" fill="#424856" height="95.8633" id="Cell" rx="2.5" ry="2.5" style="stroke:#ABB2BF;stroke-width:0.5;" width="137" x="1051.59" y="521"/><ellipse cx="1103.84" cy="537" fill="#A9DCDF" rx="11" ry="11" style="stroke:#181818;stroke-width:1.0;"/><path d="M1106.0275,538.7656 L1101.8869,538.7656 L1101.465,539.7969 L1101.8869,539.7969 Q1102.4963,539.7969 1102.7619,540.0313 Q1103.0275,540.2656 1103.0275,540.6563 Q1103.0275,541.0313 1102.7619,541.2656 Q1102.4963,541.5 1101.8869,541.5 L1099.59,541.5 Q1098.9806,541.5 1098.7306,541.2656 Q1098.465,541.0313 1098.465,540.6406 Q1098.465,540.2656 1098.7463,540.0313 Q1099.0119,539.7813 1099.6369,539.7969 L1102.3088,533.1406 L1101.1994,533.1406 Q1100.59,533.1406 1100.3244,532.9063 Q1100.0588,532.6719 1100.0588,532.2813 Q1100.0588,531.9063 1100.3244,531.6719 Q1100.59,531.4375 1101.1994,531.4375 L1104.8713,531.4375 L1108.2619,539.7969 Q1108.8556,539.7969 1109.0431,539.9375 Q1109.4338,540.2031 1109.4338,540.6563 Q1109.4338,541.0313 1109.1681,541.2656 Q1108.9181,541.5 1108.3088,541.5 L1106.0119,541.5 Q1105.4025,541.5 1105.1369,541.2656 Q1104.8713,541.0313 1104.8713,540.6406 Q1104.8713,540.2656 1105.1369,540.0313 Q1105.4025,539.7969 1106.0119,539.7969 L1106.4338,539.7969 L1106.0275,538.7656 Z M1105.3088,537.0625 L1103.9494,533.6875 L1102.5744,537.0625 L1105.3088,537.0625 Z " fill="#ABB2BF"/><text fill="#ABB2BF" font-family="Segoe UI" font-size="14" font-style="italic" lengthAdjust="spacing" textLength="24" x="1124.34" y="542.7969">Cell</text><line style="stroke:#ABB2BF;stroke-width:0.5;" x1="1052.59" x2="1187.59" y1="553" y2="553"/><ellipse cx="1062.59" cy="567.8105" fill="#84BE84" rx="3" ry="3" style="stroke:#038048;stroke-width:1.0;"/><text fill="#ABB2BF" font-family="Segoe UI" font-size="14" font-style="italic" lengthAdjust="spacing" textLength="101" x="1071.59" y="572.1074">action():boolean</text><ellipse cx="1062.59" cy="586.4316" fill="#84BE84" rx="3" ry="3" style="stroke:#038048;stroke-width:1.0;"/><text fill="#ABB2BF" font-family="Segoe UI" font-size="14" font-style="italic" lengthAdjust="spacing" textLength="111" x="1071.59" y="590.7285">getAction():Action</text><ellipse cx="1062.59" cy="605.0527" fill="#84BE84" rx="3" ry="3" style="stroke:#038048;stroke-width:1.0;"/><text fill="#ABB2BF" font-family="Segoe UI" font-size="14" font-style="italic" lengthAdjust="spacing" textLength="79" x="1071.59" y="609.3496">getData():int</text></g><!--class ConcreateCell--><g id="elem_ConcreateCell"><rect codeLine="33" fill="#424856" height="103.8633" id="ConcreateCell" rx="2.5" ry="2.5" style="stroke:#ABB2BF;stroke-width:0.5;" width="136" x="1052.09" y="709"/><ellipse cx="1072.04" cy="725" fill="#ADD1B2" rx="11" ry="11" style="stroke:#181818;stroke-width:1.0;"/><path d="M1074.8056,720.875 Q1074.9619,720.6563 1075.1494,720.5469 Q1075.3369,720.4375 1075.5556,720.4375 Q1075.9306,720.4375 1076.165,720.7031 Q1076.3994,720.9531 1076.3994,721.5625 L1076.3994,723.0156 Q1076.3994,723.625 1076.165,723.8906 Q1075.9306,724.1563 1075.5556,724.1563 Q1075.2119,724.1563 1075.0088,723.9531 Q1074.8056,723.7656 1074.6963,723.25 Q1074.6494,722.8906 1074.4619,722.7031 Q1074.1338,722.3281 1073.5244,722.1094 Q1072.915,721.8906 1072.29,721.8906 Q1071.5244,721.8906 1070.8838,722.2188 Q1070.2588,722.5469 1069.7588,723.2969 Q1069.2744,724.0469 1069.2744,725.0781 L1069.2744,726.1719 Q1069.2744,727.4063 1070.165,728.2344 Q1071.0556,729.0469 1072.6494,729.0469 Q1073.5869,729.0469 1074.2431,728.7969 Q1074.6338,728.6406 1075.0556,728.2031 Q1075.3213,727.9375 1075.4619,727.8594 Q1075.6181,727.7813 1075.8213,727.7813 Q1076.1494,727.7813 1076.3994,728.0469 Q1076.665,728.2969 1076.665,728.6406 Q1076.665,728.9844 1076.3213,729.3906 Q1075.8213,729.9688 1075.0244,730.2969 Q1073.9463,730.75 1072.6494,730.75 Q1071.1338,730.75 1069.9306,730.125 Q1068.9463,729.625 1068.2588,728.5625 Q1067.5713,727.4844 1067.5713,726.2031 L1067.5713,725.0469 Q1067.5713,723.7188 1068.1806,722.5781 Q1068.8056,721.4219 1069.8994,720.8125 Q1070.9931,720.1875 1072.2275,720.1875 Q1072.9619,720.1875 1073.6025,720.3594 Q1074.2588,720.5156 1074.8056,720.875 Z " fill="#ABB2BF"/><text fill="#ABB2BF" font-family="Segoe UI" font-size="14" lengthAdjust="spacing" textLength="93" x="1087.14" y="730.7969">ConcreateCell</text><line style="stroke:#ABB2BF;stroke-width:0.5;" x1="1053.09" x2="1187.09" y1="741" y2="741"/><text fill="#ABB2BF" font-family="Segoe UI" font-size="14" lengthAdjust="spacing" textLength="12" x="1058.09" y="760.1074">...</text><line style="stroke:#ABB2BF;stroke-width:0.5;" x1="1053.09" x2="1187.09" y1="767.6211" y2="767.6211"/><ellipse cx="1063.09" cy="782.4316" fill="#84BE84" rx="3" ry="3" style="stroke:#038048;stroke-width:1.0;"/><text fill="#ABB2BF" font-family="Segoe UI" font-size="14" lengthAdjust="spacing" textLength="110" x="1072.09" y="786.7285">action():boolean</text><text fill="#ABB2BF" font-family="Segoe UI" font-size="14" lengthAdjust="spacing" textLength="12" x="1072.09" y="805.3496">...</text></g><path d="M63.59,271 L63.59,419.3281 A0,0 0 0 0 63.59,419.3281 L412.59,419.3281 A0,0 0 0 0 412.59,419.3281 L412.59,349.1641 L451.59,351.4316 L412.59,341.1641 L412.59,281 L402.59,271 L63.59,271 A0,0 0 0 0 63.59,271 " fill="#E5C07B" style="stroke:#282C34;stroke-width:0.5;"/><path d="M402.59,271 L402.59,281 L412.59,281 L402.59,271 " fill="#E5C07B" style="stroke:#282C34;stroke-width:0.5;"/><text fill="#282C34" font-family="Segoe UI" font-size="13" lengthAdjust="spacing" textLength="182" x="69.59" y="290.0283">if(colleague instanceof Cell) {</text><text fill="#282C34" font-family="Segoe UI" font-size="13" lengthAdjust="spacing" textLength="161" x="85.59" y="307.3193">Cell cell = (Cell)colleague;</text><text fill="#282C34" font-family="Segoe UI" font-size="13" lengthAdjust="spacing" textLength="312" x="85.59" y="324.6104">return reactToCell(cell.getAction(), cell.getData());</text><text fill="#282C34" font-family="Segoe UI" font-size="13" lengthAdjust="spacing" textLength="230" x="69.59" y="341.9014">}else if(colleague instanceof Player) {</text><text fill="#282C34" font-family="Segoe UI" font-size="13" lengthAdjust="spacing" textLength="208" x="85.59" y="359.1924">Player player = (Player)colleague;</text><text fill="#282C34" font-family="Segoe UI" font-size="13" lengthAdjust="spacing" textLength="265" x="85.59" y="376.4834">return reactToPlayer(player.getMessage());</text><text fill="#282C34" font-family="Segoe UI" font-size="13" lengthAdjust="spacing" textLength="5" x="69.59" y="393.7744">}</text><text fill="#282C34" font-family="Segoe UI" font-size="13" lengthAdjust="spacing" textLength="12" x="69.59" y="411.0654">...</text><path d="M868.09,312.5 L868.09,322.1455 L755.59,370.0527 L868.09,330.1455 L868.09,339.791 A0,0 0 0 0 868.09,339.791 L1194.09,339.791 A0,0 0 0 0 1194.09,339.791 L1194.09,322.5 L1184.09,312.5 L868.09,312.5 A0,0 0 0 0 868.09,312.5 " fill="#E5C07B" style="stroke:#282C34;stroke-width:0.5;"/><path d="M1184.09,312.5 L1184.09,322.5 L1194.09,322.5 L1184.09,312.5 " fill="#E5C07B" style="stroke:#282C34;stroke-width:0.5;"/><text fill="#282C34" font-family="Segoe UI" font-size="13" lengthAdjust="spacing" textLength="305" x="874.09" y="331.5283">// Esegui l'azione relativa all'azione e ai suoi dati</text><path d="M868.09,349.791 L868.09,359.4365 L826.59,388.6738 L868.09,367.4365 L868.09,377.082 A0,0 0 0 0 868.09,377.082 L1132.09,377.082 A0,0 0 0 0 1132.09,377.082 L1132.09,359.791 L1122.09,349.791 L868.09,349.791 A0,0 0 0 0 868.09,349.791 " fill="#E5C07B" style="stroke:#282C34;stroke-width:0.5;"/><path d="M1122.09,349.791 L1122.09,359.791 L1132.09,359.791 L1122.09,349.791 " fill="#E5C07B" style="stroke:#282C34;stroke-width:0.5;"/><text fill="#282C34" font-family="Segoe UI" font-size="13" lengthAdjust="spacing" textLength="243" x="874.09" y="368.8193">// Esegui l'azione relativa al messaggio</text><path d="M1223.09,742.5 L1223.09,752.1455 L1182.09,780.9316 L1223.09,760.1455 L1223.09,769.791 A0,0 0 0 0 1223.09,769.791 L1465.09,769.791 A0,0 0 0 0 1465.09,769.791 L1465.09,752.5 L1455.09,742.5 L1223.09,742.5 A0,0 0 0 0 1223.09,742.5 " fill="#E5C07B" style="stroke:#282C34;stroke-width:0.5;"/><path d="M1455.09,742.5 L1455.09,752.5 L1465.09,752.5 L1455.09,742.5 " fill="#E5C07B" style="stroke:#282C34;stroke-width:0.5;"/><text fill="#282C34" font-family="Segoe UI" font-size="13" lengthAdjust="spacing" textLength="221" x="1229.09" y="761.5283">return mediator.sendMessage(this);</text><path d="M451.59,498.5 L451.59,560.0186 L228.59,579.5527 L451.59,568.0186 L451.59,629.5371 A0,0 0 0 0 451.59,629.5371 L890.59,629.5371 A0,0 0 0 0 890.59,629.5371 L890.59,508.5 L880.59,498.5 L451.59,498.5 A0,0 0 0 0 451.59,498.5 " fill="#E5C07B" style="stroke:#282C34;stroke-width:0.5;"/><path d="M880.59,498.5 L880.59,508.5 L890.59,508.5 L880.59,498.5 " fill="#E5C07B" style="stroke:#282C34;stroke-width:0.5;"/><text fill="#282C34" font-family="Segoe UI" font-size="13" lengthAdjust="spacing" textLength="153" x="457.59" y="517.5283">if(doNotStopCards &gt; 0) {</text><text fill="#282C34" font-family="Segoe UI" font-size="13" lengthAdjust="spacing" textLength="12" x="473.59" y="534.8193">...</text><text fill="#282C34" font-family="Segoe UI" font-size="13" lengthAdjust="spacing" textLength="402" x="473.59" y="552.1104">setMessage(PlayerMessageType.DISCARD_DO_NOT_STOP_CARD);</text><text fill="#282C34" font-family="Segoe UI" font-size="13" lengthAdjust="spacing" textLength="179" x="473.59" y="569.4014">mediator.sendMessage(this);</text><text fill="#282C34" font-family="Segoe UI" font-size="13" lengthAdjust="spacing" textLength="42" x="473.59" y="586.6924">return;</text><text fill="#282C34" font-family="Segoe UI" font-size="13" lengthAdjust="spacing" textLength="5" x="457.59" y="603.9834">}</text><text fill="#282C34" font-family="Segoe UI" font-size="13" lengthAdjust="spacing" textLength="12" x="457.59" y="621.2744">...</text><!--reverse link Mediator to Match--><g id="link_Mediator_Match"><path codeLine="39" d="M640.09,229.12 C640.09,247.9 640.09,255.33 640.09,279.23 " fill="none" id="Mediator-backto-Match" style="stroke:#61AFEF;stroke-width:1.0;stroke-dasharray:7.0,7.0;"/><polygon fill="none" points="640.09,211.12,634.09,229.12,646.09,229.12,640.09,211.12" style="stroke:#61AFEF;stroke-width:1.0;"/></g><!--reverse link Colleague to Cell--><g id="link_Colleague_Cell"><path codeLine="40" d="M773.6016,59.991 C908.9516,75.591 1109.72,121.82 1212.09,271 C1251.82,328.9 1232.33,361.76 1212.09,429 C1202,462.53 1180.89,495.42 1161.44,520.78 " fill="none" id="Colleague-backto-Cell" style="stroke:#61AFEF;stroke-width:1.0;"/><polygon fill="none" points="755.72,57.93,772.9146,65.9515,774.2886,54.0304,755.72,57.93" style="stroke:#61AFEF;stroke-width:1.0;"/></g><!--reverse link Colleague to Player--><g id="link_Colleague_Player"><path codeLine="41" d="M506.5647,57.7738 C366.5347,71.4038 153.96,115.9 46.09,271 C6,328.65 12.46,367.36 46.09,429 C60.67,455.72 82.83,478.07 107.49,496.48 " fill="none" id="Colleague-backto-Player" style="stroke:#61AFEF;stroke-width:1.0;"/><polygon fill="none" points="524.48,56.03,505.9834,51.802,507.1459,63.7456,524.48,56.03" style="stroke:#61AFEF;stroke-width:1.0;"/></g><!--reverse link Cell to ConcreateCell--><g id="link_Cell_ConcreateCell"><path codeLine="42" d="M1120.09,635.45 C1120.09,663.26 1120.09,680.4 1120.09,708.82 " fill="none" id="Cell-backto-ConcreateCell" style="stroke:#61AFEF;stroke-width:1.0;"/><polygon fill="none" points="1120.09,617.45,1114.09,635.45,1126.09,635.45,1120.09,617.45" style="stroke:#61AFEF;stroke-width:1.0;"/></g><!--link Colleague to Mediator--><g id="link_Colleague_Mediator"><path codeLine="44" d="M640.09,92.35 C640.09,111.8 640.09,128.42 640.09,145.88 " fill="none" id="Colleague-to-Mediator" style="stroke:#61AFEF;stroke-width:1.0;"/><polygon fill="#61AFEF" points="640.09,151.88,644.09,142.88,640.09,146.88,636.09,142.88,640.09,151.88" style="stroke:#61AFEF;stroke-width:1.0;"/></g><!--link Match to Player--><g id="link_Match_Player"><path codeLine="45" d="M508.5221,426.5329 C470.6221,448.2829 444.1439,463.4934 405.1839,485.8534 " fill="none" id="Match-Player" style="stroke:#61AFEF;stroke-width:1.0;"/><polygon fill="#61AFEF" points="518.93,420.56,511.7351,420.0771,508.5221,426.5329,515.717,427.0157,518.93,420.56" style="stroke:#61AFEF;stroke-width:1.0;"/><polygon fill="#61AFEF" points="399.98,488.84,409.7769,487.8293,404.3166,486.3512,405.7947,480.8908,399.98,488.84" style="stroke:#61AFEF;stroke-width:1.0;"/></g><!--link Match to Cell--><g id="link_Match_Cell"><path codeLine="46" d="M804.8847,425.503 C891.5347,464.673 979.0527,504.2384 1045.9227,534.4684 " fill="none" id="Match-Cell" style="stroke:#61AFEF;stroke-width:1.0;"/><polygon fill="#61AFEF" points="793.95,420.56,797.7697,426.6764,804.8847,425.503,801.065,419.3866,793.95,420.56" style="stroke:#61AFEF;stroke-width:1.0;"/><polygon fill="#61AFEF" points="1051.39,536.94,1044.8368,529.5877,1046.8339,534.8803,1041.5413,536.8775,1051.39,536.94" style="stroke:#61AFEF;stroke-width:1.0;"/></g><!--SRC=[bLJ1Sfim4BthAzJqKDm4aLnfcfcCtKCFJZADxnvPh45Z8J6IICTD_EyLI61CxCRb069vk_lsyQHFN39HPu0BQokJ9ecclqdERL6lQWEQAMb1Mi9KcLJKQhw9cQ6RH4c8CwetSIMej7KfObj02SdB3RacDqdxGYeNHwZWhZgKbTtY4ieLQ8CGTrNrcZB0SyWujKhZLuJTzKfNnchAx0vV6f3P78oXEKHC2G4qho6TTgj96gsKScivGJlKvU7-UwZukGmTqgwL3_Uuw1sWgOUOeCRWERMi29K88UtpOsA1LukEDJXQ2pK58IAtuagcz-tZAgEMfawAumbFWcv1EtPjezI_XhQBRJLgyrg2BLIsQrdk0dkV4-Z79oiTJhSIYcqYMsjfMd8-ceFjHfwSg12RFUOqwsDizp_FYNJ42LwsQ3Jn0E3OtNSOlpW6cJcz7S0DrIiqLP8vlIqCEb_Ye_qwWKRSKU_WspT2l67GteItRt7SZZMEUMLGszU3XbJG01x7T_qsGTwGNvjOg328-4ofB601QulLslD9qujpFNlHpiZNUn3cqbWg6RXgJOD9aAcvMlQikNt7KVknJ_lMWpGqPiB3VT2aaC5Fky9TnF-ZYS_UWJ1maeoVVqWd-Bto3qSfG3ua5VQQJoH3htTCUWiu7N6Zi9TPyxmuqFa_ThkNEadm3mDvpR7uGlyue2iAWbh-GZ4LVGmmvTZKYcDNXv_9ukmZv1mgs9V9kTft7xK_iB2ZCTv7lasGlZjsoT2Qjk36INvYF3-0Apm-ethNPkf1sMUhgYdLcS5t-7heZsuBDzVWi7gd2vdzV9xU_vejPu_BXyV5yddn-BHi0fEzWVv5_z1a9ntq5m00]--></g></svg>