<?xml version="1.0" encoding="us-ascii" standalone="no"?><svg xmlns="http://www.w3.org/2000/svg" xmlns:xlink="http://www.w3.org/1999/xlink" contentStyleType="text/css" height="309px" preserveAspectRatio="none" style="width:1950px;height:309px;background:#282C34;" version="1.1" viewBox="0 0 1950 309" width="1950px" zoomAndPan="magnify"><defs/><g><rect fill="#282C34" height="309" style="stroke:none;stroke-width:1.0;" width="1950" x="0" y="0"/><!--class BoardBuildStrategy--><g id="elem_BoardBuildStrategy"><rect codeLine="5" fill="#424856" height="58.6211" id="BoardBuildStrategy" rx="2.5" ry="2.5" style="stroke:#ABB2BF;stroke-width:0.5;" width="397" x="663.5" y="244"/><ellipse cx="797.25" cy="260" fill="#B4A7E5" rx="11" ry="11" style="stroke:#181818;stroke-width:1.0;"/><path d="M798.2031,256.6406 L798.2031,263.2969 L799.9219,263.2969 Q800.5313,263.2969 800.7969,263.5313 Q801.0625,263.7656 801.0625,264.1563 Q801.0625,264.5313 800.7969,264.7656 Q800.5313,265 799.9219,265 L794.7813,265 Q794.1719,265 793.9063,264.7656 Q793.6406,264.5313 793.6406,264.1406 Q793.6406,263.7656 793.9063,263.5313 Q794.1719,263.2969 794.7813,263.2969 L796.5,263.2969 L796.5,256.6406 L794.7813,256.6406 Q794.1719,256.6406 793.9063,256.4063 Q793.6406,256.1719 793.6406,255.7813 Q793.6406,255.4063 793.9063,255.1719 Q794.1719,254.9375 794.7813,254.9375 L799.9219,254.9375 Q800.5313,254.9375 800.7969,255.1719 Q801.0625,255.4063 801.0625,255.7813 Q801.0625,256.1719 800.7969,256.4063 Q800.5313,256.6406 799.9219,256.6406 L798.2031,256.6406 Z " fill="#ABB2BF"/><text fill="#ABB2BF" font-family="Segoe UI" font-size="14" font-style="italic" lengthAdjust="spacing" textLength="121" x="817.75" y="265.7969">BoardBuildStrategy</text><line style="stroke:#ABB2BF;stroke-width:0.5;" x1="664.5" x2="1059.5" y1="276" y2="276"/><ellipse cx="674.5" cy="290.8105" fill="#84BE84" rx="3" ry="3" style="stroke:#038048;stroke-width:1.0;"/><text fill="#ABB2BF" font-family="Segoe UI" font-size="14" font-style="italic" lengthAdjust="spacing" textLength="371" x="683.5" y="295.1074">buildBoard(rows:int, columns:int, mediator:Mediator):Cell[][]</text></g><!--class ConcreateBoardBuildStrategy--><g id="elem_ConcreateBoardBuildStrategy"><rect codeLine="9" fill="#424856" height="122.4844" id="ConcreateBoardBuildStrategy" rx="2.5" ry="2.5" style="stroke:#ABB2BF;stroke-width:0.5;" width="433" x="363.5" y="34"/><ellipse cx="475.75" cy="50" fill="#ADD1B2" rx="11" ry="11" style="stroke:#181818;stroke-width:1.0;"/><path d="M478.5156,45.875 Q478.6719,45.6563 478.8594,45.5469 Q479.0469,45.4375 479.2656,45.4375 Q479.6406,45.4375 479.875,45.7031 Q480.1094,45.9531 480.1094,46.5625 L480.1094,48.0156 Q480.1094,48.625 479.875,48.8906 Q479.6406,49.1563 479.2656,49.1563 Q478.9219,49.1563 478.7188,48.9531 Q478.5156,48.7656 478.4063,48.25 Q478.3594,47.8906 478.1719,47.7031 Q477.8438,47.3281 477.2344,47.1094 Q476.625,46.8906 476,46.8906 Q475.2344,46.8906 474.5938,47.2188 Q473.9688,47.5469 473.4688,48.2969 Q472.9844,49.0469 472.9844,50.0781 L472.9844,51.1719 Q472.9844,52.4063 473.875,53.2344 Q474.7656,54.0469 476.3594,54.0469 Q477.2969,54.0469 477.9531,53.7969 Q478.3438,53.6406 478.7656,53.2031 Q479.0313,52.9375 479.1719,52.8594 Q479.3281,52.7813 479.5313,52.7813 Q479.8594,52.7813 480.1094,53.0469 Q480.375,53.2969 480.375,53.6406 Q480.375,53.9844 480.0313,54.3906 Q479.5313,54.9688 478.7344,55.2969 Q477.6563,55.75 476.3594,55.75 Q474.8438,55.75 473.6406,55.125 Q472.6563,54.625 471.9688,53.5625 Q471.2813,52.4844 471.2813,51.2031 L471.2813,50.0469 Q471.2813,48.7188 471.8906,47.5781 Q472.5156,46.4219 473.6094,45.8125 Q474.7031,45.1875 475.9375,45.1875 Q476.6719,45.1875 477.3125,45.3594 Q477.9688,45.5156 478.5156,45.875 Z " fill="#ABB2BF"/><text fill="#ABB2BF" font-family="Segoe UI" font-size="14" lengthAdjust="spacing" textLength="200" x="496.25" y="55.7969">ConcreateBoardBuildStrategy</text><line style="stroke:#ABB2BF;stroke-width:0.5;" x1="364.5" x2="795.5" y1="66" y2="66"/><text fill="#ABB2BF" font-family="Segoe UI" font-size="14" lengthAdjust="spacing" textLength="12" x="369.5" y="85.1074">...</text><line style="stroke:#ABB2BF;stroke-width:0.5;" x1="364.5" x2="795.5" y1="92.6211" y2="92.6211"/><ellipse cx="374.5" cy="107.4316" fill="#84BE84" rx="3" ry="3" style="stroke:#038048;stroke-width:1.0;"/><text fill="#ABB2BF" font-family="Segoe UI" font-size="14" lengthAdjust="spacing" textLength="222" x="383.5" y="111.7285">ConcreateBoardBuildStrategy(...)</text><ellipse cx="374.5" cy="126.0527" fill="#84BE84" rx="3" ry="3" style="stroke:#038048;stroke-width:1.0;"/><text fill="#ABB2BF" font-family="Segoe UI" font-size="14" lengthAdjust="spacing" textLength="407" x="383.5" y="130.3496">buildBoard(rows:int, columns:int, mediator:Mediator):Cell[][]</text><text fill="#ABB2BF" font-family="Segoe UI" font-size="14" lengthAdjust="spacing" textLength="12" x="383.5" y="148.9707">...</text></g><!--class Board--><g id="elem_Board"><rect codeLine="15" fill="#424856" height="122.4844" id="Board" rx="2.5" ry="2.5" style="stroke:#ABB2BF;stroke-width:0.5;" width="626" x="832" y="34"/><ellipse cx="1120.25" cy="50" fill="#ADD1B2" rx="11" ry="11" style="stroke:#181818;stroke-width:1.0;"/><path d="M1123.0156,45.875 Q1123.1719,45.6563 1123.3594,45.5469 Q1123.5469,45.4375 1123.7656,45.4375 Q1124.1406,45.4375 1124.375,45.7031 Q1124.6094,45.9531 1124.6094,46.5625 L1124.6094,48.0156 Q1124.6094,48.625 1124.375,48.8906 Q1124.1406,49.1563 1123.7656,49.1563 Q1123.4219,49.1563 1123.2188,48.9531 Q1123.0156,48.7656 1122.9063,48.25 Q1122.8594,47.8906 1122.6719,47.7031 Q1122.3438,47.3281 1121.7344,47.1094 Q1121.125,46.8906 1120.5,46.8906 Q1119.7344,46.8906 1119.0938,47.2188 Q1118.4688,47.5469 1117.9688,48.2969 Q1117.4844,49.0469 1117.4844,50.0781 L1117.4844,51.1719 Q1117.4844,52.4063 1118.375,53.2344 Q1119.2656,54.0469 1120.8594,54.0469 Q1121.7969,54.0469 1122.4531,53.7969 Q1122.8438,53.6406 1123.2656,53.2031 Q1123.5313,52.9375 1123.6719,52.8594 Q1123.8281,52.7813 1124.0313,52.7813 Q1124.3594,52.7813 1124.6094,53.0469 Q1124.875,53.2969 1124.875,53.6406 Q1124.875,53.9844 1124.5313,54.3906 Q1124.0313,54.9688 1123.2344,55.2969 Q1122.1563,55.75 1120.8594,55.75 Q1119.3438,55.75 1118.1406,55.125 Q1117.1563,54.625 1116.4688,53.5625 Q1115.7813,52.4844 1115.7813,51.2031 L1115.7813,50.0469 Q1115.7813,48.7188 1116.3906,47.5781 Q1117.0156,46.4219 1118.1094,45.8125 Q1119.2031,45.1875 1120.4375,45.1875 Q1121.1719,45.1875 1121.8125,45.3594 Q1122.4688,45.5156 1123.0156,45.875 Z " fill="#ABB2BF"/><text fill="#ABB2BF" font-family="Segoe UI" font-size="14" lengthAdjust="spacing" textLength="41" x="1140.75" y="55.7969">Board</text><line style="stroke:#ABB2BF;stroke-width:0.5;" x1="833" x2="1457" y1="66" y2="66"/><rect fill="none" height="6" style="stroke:#C82930;stroke-width:1.0;" width="6" x="840" y="77.8105"/><text fill="#ABB2BF" font-family="Segoe UI" font-size="14" lengthAdjust="spacing" textLength="78" x="852" y="85.1074">cells:Cell[][]</text><text fill="#ABB2BF" font-family="Segoe UI" font-size="14" lengthAdjust="spacing" textLength="12" x="852" y="103.7285">...</text><line style="stroke:#ABB2BF;stroke-width:0.5;" x1="833" x2="1457" y1="111.2422" y2="111.2422"/><ellipse cx="843" cy="126.0527" fill="#84BE84" rx="3" ry="3" style="stroke:#038048;stroke-width:1.0;"/><text fill="#ABB2BF" font-family="Segoe UI" font-size="14" lengthAdjust="spacing" textLength="600" x="852" y="130.3496">Board(rows:int, columns:int, boardBuildStrategy:BoardBuildStrategy, mediator:Mediator)</text><text fill="#ABB2BF" font-family="Segoe UI" font-size="14" lengthAdjust="spacing" textLength="12" x="852" y="148.9707">...</text></g><path d="M6,6 L6,67.873 A0,0 0 0 0 6,67.873 L328,67.873 A0,0 0 0 0 328,67.873 L328,40.9365 L367.5,105.9316 L328,32.9365 L328,16 L318,6 L6,6 A0,0 0 0 0 6,6 " fill="#E5C07B" style="stroke:#282C34;stroke-width:0.5;"/><path d="M318,6 L318,16 L328,16 L318,6 " fill="#E5C07B" style="stroke:#282C34;stroke-width:0.5;"/><text fill="#282C34" font-family="Segoe UI" font-size="13" lengthAdjust="spacing" textLength="12" x="12" y="25.0283">...</text><text fill="#282C34" font-family="Segoe UI" font-size="13" lengthAdjust="spacing" textLength="301" x="12" y="42.3193">// Imposta i dati per la costruzione del tabellone</text><text fill="#282C34" font-family="Segoe UI" font-size="13" lengthAdjust="spacing" textLength="12" x="12" y="59.6104">...</text><path d="M6,77.873 L6,174.3281 A0,0 0 0 0 6,174.3281 L284,174.3281 A0,0 0 0 0 284,174.3281 L284,130.1006 L367.5,124.5527 L284,122.1006 L284,87.873 L274,77.873 L6,77.873 A0,0 0 0 0 6,77.873 " fill="#E5C07B" style="stroke:#282C34;stroke-width:0.5;"/><path d="M274,77.873 L274,87.873 L284,87.873 L274,77.873 " fill="#E5C07B" style="stroke:#282C34;stroke-width:0.5;"/><text fill="#282C34" font-family="Segoe UI" font-size="13" lengthAdjust="spacing" textLength="257" x="12" y="96.9014">Cell[][] board = new Cell[rows][columns];</text><text fill="#282C34" font-family="Segoe UI" font-size="13" lengthAdjust="spacing" textLength="12" x="12" y="114.1924">...</text><text fill="#282C34" font-family="Segoe UI" font-size="13" lengthAdjust="spacing" textLength="223" x="12" y="131.4834">// Esegue la costruzione della baord</text><text fill="#282C34" font-family="Segoe UI" font-size="13" lengthAdjust="spacing" textLength="12" x="12" y="148.7744">...</text><text fill="#282C34" font-family="Segoe UI" font-size="13" lengthAdjust="spacing" textLength="82" x="12" y="166.0654">return board;</text><path d="M1493,67.5 L1493,85.791 L1452,124.5527 L1493,93.791 L1493,112.082 A0,0 0 0 0 1493,112.082 L1943,112.082 A0,0 0 0 0 1943,112.082 L1943,77.5 L1933,67.5 L1493,67.5 A0,0 0 0 0 1493,67.5 " fill="#E5C07B" style="stroke:#282C34;stroke-width:0.5;"/><path d="M1933,67.5 L1933,77.5 L1943,77.5 L1933,67.5 " fill="#E5C07B" style="stroke:#282C34;stroke-width:0.5;"/><text fill="#282C34" font-family="Segoe UI" font-size="13" lengthAdjust="spacing" textLength="429" x="1499" y="86.5283">this.cells = boardBuildStrategy.buildBoard(rows, columns, mediator);</text><text fill="#282C34" font-family="Segoe UI" font-size="13" lengthAdjust="spacing" textLength="12" x="1499" y="103.8193">...</text><!--link ConcreateBoardBuildStrategy to BoardBuildStrategy--><g id="link_ConcreateBoardBuildStrategy_BoardBuildStrategy"><path codeLine="22" d="M675.87,156 C723.29,185.68 763.0728,210.5792 800.9328,234.2792 " fill="none" id="ConcreateBoardBuildStrategy-to-BoardBuildStrategy" style="stroke:#61AFEF;stroke-width:1.0;stroke-dasharray:7.0,7.0;"/><polygon fill="none" points="816.19,243.83,804.1164,229.1934,797.7492,239.3649,816.19,243.83" style="stroke:#61AFEF;stroke-width:1.0;"/></g><!--reverse link Board to BoardBuildStrategy--><g id="link_Board_BoardBuildStrategy"><path codeLine="23" d="M1038.6079,162.3502 C991.0179,192.0302 945.97,220.13 907.98,243.83 " fill="none" id="Board-backto-BoardBuildStrategy" style="stroke:#61AFEF;stroke-width:1.0;"/><polygon fill="#61AFEF" points="1048.79,156,1041.5822,155.7811,1038.6079,162.3502,1045.8157,162.5691,1048.79,156" style="stroke:#61AFEF;stroke-width:1.0;"/></g><!--SRC=[jL8xRzim4DxvAwwPuYQYcbL6EoJ8q25JHyC3HPujmdm8vB56alg_bwPK1uuL5q4GBTATxhx7tNtHJfga43gYFZPr7SIMhpLrgKqHW_IEq16NtjQzeA0tbOnYKtk7bH9XK_L6E4hMLDIXnVht3V_6R-eIy3xd6UjqHaVRqoDOj2s6o9ZEg64b9CAj5q7T9ctKBmg2SFq8pmpoyopQc3EITd3Lxl-NoilWjx79xTSWlKdMZO55fGNvq3oC7xFc3erPB1TBjcDC6X4Zt7ad0sQIDqavv-LzTQRqCXVDXggFwIekBLBdrQumxqQT1N5KLCbS7e-R3YhFKhSdofjJCrCAfuInSxFZ_C-FYKMomSVNgfhwoPmd18Ch0hywjvgckVZVDYwEnbBNyDFsFf803KgGXXu36977aoygFUbylA3G08asZpL7XtPq2lQwtYFkGqSmAFyN3Jk3x-1mEoJtYCl5YBQSl_Pv7t6TSC9RphJ21tNK491IS0F9_CNhO3ReTLVS5YlPr-SSrs2OEXrvkUnizXIBlvhfWVm5SJO_NTfV]--></g></svg>